<?xml version="1.0" encoding="UTF-8" standalone="no"?>
<!DOCTYPE svg PUBLIC "-//W3C//DTD SVG 1.1//EN"
 "http://www.w3.org/Graphics/SVG/1.1/DTD/svg11.dtd">
<!-- Generated by graphviz version 2.43.0 (0)
 -->
<!-- Title: dependency&#45;cruiser output Pages: 1 -->
<svg width="565pt" height="257pt"
 viewBox="0.00 0.00 564.99 256.53" xmlns="http://www.w3.org/2000/svg" xmlns:xlink="http://www.w3.org/1999/xlink">
<g id="graph0" class="graph" transform="scale(1 1) rotate(0) translate(4 252.53)">
<title>dependency&#45;cruiser output</title>
<polygon fill="white" stroke="transparent" points="-4,4 -4,-252.53 560.99,-252.53 560.99,4 -4,4"/>
<g id="clust1" class="cluster">
<title>cluster_src</title>
<path fill="#ffffff" stroke="black" stroke-width="2" d="M20,-9.53C20,-9.53 536.99,-9.53 536.99,-9.53 542.99,-9.53 548.99,-15.53 548.99,-21.53 548.99,-21.53 548.99,-228.53 548.99,-228.53 548.99,-234.53 542.99,-240.53 536.99,-240.53 536.99,-240.53 20,-240.53 20,-240.53 14,-240.53 8,-234.53 8,-228.53 8,-228.53 8,-21.53 8,-21.53 8,-15.53 14,-9.53 20,-9.53"/>
<text text-anchor="middle" x="278.5" y="-229.33" font-family="Helvetica,sans-Serif" font-weight="bold" font-size="9.00">src</text>
</g>
<g id="clust2" class="cluster">
<title>cluster_src/components</title>
<path fill="#ffffff" stroke="black" stroke-width="2" d="M161.02,-106.53C161.02,-106.53 466.99,-106.53 466.99,-106.53 472.99,-106.53 478.99,-112.53 478.99,-118.53 478.99,-118.53 478.99,-203.53 478.99,-203.53 478.99,-209.53 472.99,-215.53 466.99,-215.53 466.99,-215.53 161.02,-215.53 161.02,-215.53 155.02,-215.53 149.02,-209.53 149.02,-203.53 149.02,-203.53 149.02,-118.53 149.02,-118.53 149.02,-112.53 155.02,-106.53 161.02,-106.53"/>
<text text-anchor="middle" x="314.01" y="-204.33" font-family="Helvetica,sans-Serif" font-weight="bold" font-size="9.00">components</text>
</g>
<g id="clust3" class="cluster">
<title>cluster_src/helpers</title>
<path fill="#ffffff" stroke="black" stroke-width="2" d="M267.4,-41.53C267.4,-41.53 348.45,-41.53 348.45,-41.53 354.45,-41.53 360.45,-47.53 360.45,-53.53 360.45,-53.53 360.45,-80.53 360.45,-80.53 360.45,-86.53 354.45,-92.53 348.45,-92.53 348.45,-92.53 267.4,-92.53 267.4,-92.53 261.4,-92.53 255.4,-86.53 255.4,-80.53 255.4,-80.53 255.4,-53.53 255.4,-53.53 255.4,-47.53 261.4,-41.53 267.4,-41.53"/>
<text text-anchor="middle" x="307.92" y="-81.33" font-family="Helvetica,sans-Serif" font-weight="bold" font-size="9.00">helpers</text>
</g>
<!-- src/App.css -->
<g id="node1" class="node">
<title>src/App.css</title>
<g id="a_node1"><a xlink:href="src/App.css" xlink:title="App.css">
<path fill="#ffffcc" stroke="black" d="M535.33,-124.03C535.33,-124.03 492.66,-124.03 492.66,-124.03 489.83,-124.03 486.99,-121.2 486.99,-118.37 486.99,-118.37 486.99,-112.7 486.99,-112.7 486.99,-109.87 489.83,-107.03 492.66,-107.03 492.66,-107.03 535.33,-107.03 535.33,-107.03 538.16,-107.03 540.99,-109.87 540.99,-112.7 540.99,-112.7 540.99,-118.37 540.99,-118.37 540.99,-121.2 538.16,-124.03 535.33,-124.03"/>
<text text-anchor="middle" x="513.99" y="-112.83" font-family="Helvetica,sans-Serif" font-size="9.00">App.css</text>
</a>
</g>
</g>
<!-- src/App.js -->
<g id="node2" class="node">
<title>src/App.js</title>
<g id="a_node2"><a xlink:href="src/App.js" xlink:title="App.js">
<path fill="#ffffcc" stroke="black" d="M135.35,-132.03C135.35,-132.03 92.69,-132.03 92.69,-132.03 89.85,-132.03 87.02,-129.2 87.02,-126.37 87.02,-126.37 87.02,-120.7 87.02,-120.7 87.02,-117.87 89.85,-115.03 92.69,-115.03 92.69,-115.03 135.35,-115.03 135.35,-115.03 138.19,-115.03 141.02,-117.87 141.02,-120.7 141.02,-120.7 141.02,-126.37 141.02,-126.37 141.02,-129.2 138.19,-132.03 135.35,-132.03"/>
<text text-anchor="middle" x="114.02" y="-120.83" font-family="Helvetica,sans-Serif" font-size="9.00">App.js</text>
</a>
</g>
</g>
<!-- src/App.js&#45;&gt;src/App.css -->
<g id="edge1" class="edge">
<title>src/App.js&#45;&gt;src/App.css</title>
<path fill="none" stroke="#000000" stroke-width="2" stroke-opacity="0.200000" d="M123.18,-114.88C142.84,-94.76 195.29,-45.2 250.9,-27.53 347.67,3.2 396.91,19.23 478.99,-40.53 498.58,-54.8 507.14,-83.05 510.68,-100.52"/>
<polygon fill="#000000" fill-opacity="0.200000" stroke="#000000" stroke-width="2" stroke-opacity="0.200000" points="508.69,-101.32 511.84,-106.85 512.82,-100.56 508.69,-101.32"/>
</g>
<!-- src/components/ControlPanel.js -->
<g id="node3" class="node">
<title>src/components/ControlPanel.js</title>
<g id="a_node3"><a xlink:href="src/components/ControlPanel.js" xlink:title="ControlPanel.js">
<path fill="#ffffcc" stroke="black" d="M230.32,-161.03C230.32,-161.03 164.59,-161.03 164.59,-161.03 161.76,-161.03 158.93,-158.2 158.93,-155.37 158.93,-155.37 158.93,-149.7 158.93,-149.7 158.93,-146.87 161.76,-144.03 164.59,-144.03 164.59,-144.03 230.32,-144.03 230.32,-144.03 233.16,-144.03 235.99,-146.87 235.99,-149.7 235.99,-149.7 235.99,-155.37 235.99,-155.37 235.99,-158.2 233.16,-161.03 230.32,-161.03"/>
<text text-anchor="middle" x="197.46" y="-149.83" font-family="Helvetica,sans-Serif" font-size="9.00">ControlPanel.js</text>
</a>
</g>
</g>
<!-- src/App.js&#45;&gt;src/components/ControlPanel.js -->
<g id="edge2" class="edge">
<title>src/App.js&#45;&gt;src/components/ControlPanel.js</title>
<path fill="none" stroke="#000000" stroke-width="2" stroke-opacity="0.200000" d="M133.2,-132.07C138.26,-134.31 143.81,-136.63 149.02,-138.53 152.38,-139.76 155.9,-140.97 159.44,-142.11"/>
<polygon fill="#000000" fill-opacity="0.200000" stroke="#000000" stroke-width="2" stroke-opacity="0.200000" points="159.04,-144.19 165.39,-143.99 160.3,-140.18 159.04,-144.19"/>
</g>
<!-- src/components/IdeasWrapper.js -->
<g id="node4" class="node">
<title>src/components/IdeasWrapper.js</title>
<g id="a_node4"><a xlink:href="src/components/IdeasWrapper.js" xlink:title="IdeasWrapper.js">
<path fill="#ffffcc" stroke="black" d="M232.17,-132.03C232.17,-132.03 162.75,-132.03 162.75,-132.03 159.92,-132.03 157.08,-129.2 157.08,-126.37 157.08,-126.37 157.08,-120.7 157.08,-120.7 157.08,-117.87 159.92,-115.03 162.75,-115.03 162.75,-115.03 232.17,-115.03 232.17,-115.03 235,-115.03 237.84,-117.87 237.84,-120.7 237.84,-120.7 237.84,-126.37 237.84,-126.37 237.84,-129.2 235,-132.03 232.17,-132.03"/>
<text text-anchor="middle" x="197.46" y="-120.83" font-family="Helvetica,sans-Serif" font-size="9.00">IdeasWrapper.js</text>
</a>
</g>
</g>
<!-- src/App.js&#45;&gt;src/components/IdeasWrapper.js -->
<g id="edge3" class="edge">
<title>src/App.js&#45;&gt;src/components/IdeasWrapper.js</title>
<path fill="none" stroke="#000000" stroke-width="2" stroke-opacity="0.200000" d="M141.24,-123.53C144.22,-123.53 147.32,-123.53 150.46,-123.53"/>
<polygon fill="#000000" fill-opacity="0.200000" stroke="#000000" stroke-width="2" stroke-opacity="0.200000" points="150.95,-125.63 156.95,-123.53 150.95,-121.43 150.95,-125.63"/>
</g>
<!-- src/components/ControlPanel.js&#45;&gt;src/App.css -->
<g id="edge6" class="edge">
<title>src/components/ControlPanel.js&#45;&gt;src/App.css</title>
<path fill="none" stroke="#000000" stroke-width="2" stroke-opacity="0.200000" d="M232.14,-143.8C234.29,-142.31 236.25,-140.57 237.9,-138.53 266.06,-103.67 217.22,-68.11 250.9,-38.53 269.94,-21.81 340.33,-32.51 364.95,-38.53 416.18,-51.06 469.41,-84.71 495.89,-103.11"/>
<polygon fill="#000000" fill-opacity="0.200000" stroke="#000000" stroke-width="2" stroke-opacity="0.200000" points="495.01,-105.05 501.13,-106.79 497.43,-101.62 495.01,-105.05"/>
</g>
<!-- src/helpers/expandTextarea.js -->
<g id="node7" class="node">
<title>src/helpers/expandTextarea.js</title>
<g id="a_node7"><a xlink:href="src/helpers/expandTextarea.js" xlink:title="expandTextarea.js">
<path fill="#ffffcc" stroke="black" d="M346.8,-67.03C346.8,-67.03 269.04,-67.03 269.04,-67.03 266.21,-67.03 263.38,-64.2 263.38,-61.37 263.38,-61.37 263.38,-55.7 263.38,-55.7 263.38,-52.87 266.21,-50.03 269.04,-50.03 269.04,-50.03 346.8,-50.03 346.8,-50.03 349.63,-50.03 352.47,-52.87 352.47,-55.7 352.47,-55.7 352.47,-61.37 352.47,-61.37 352.47,-64.2 349.63,-67.03 346.8,-67.03"/>
<text text-anchor="middle" x="307.92" y="-55.83" font-family="Helvetica,sans-Serif" font-size="9.00">expandTextarea.js</text>
</a>
</g>
</g>
<!-- src/components/ControlPanel.js&#45;&gt;src/helpers/expandTextarea.js -->
<g id="edge7" class="edge">
<title>src/components/ControlPanel.js&#45;&gt;src/helpers/expandTextarea.js</title>
<path fill="none" stroke="#000000" stroke-width="2" stroke-opacity="0.200000" d="M230.5,-144.03C233.2,-142.49 235.72,-140.68 237.9,-138.53 249.72,-126.89 241.19,-116.99 250.9,-103.53 260.52,-90.2 275.08,-78.66 286.95,-70.61"/>
<polygon fill="#000000" fill-opacity="0.200000" stroke="#000000" stroke-width="2" stroke-opacity="0.200000" points="288.33,-72.22 292.19,-67.17 286.02,-68.71 288.33,-72.22"/>
</g>
<!-- src/components/Preview.js -->
<g id="node8" class="node">
<title>src/components/Preview.js</title>
<g id="a_node8"><a xlink:href="src/components/Preview.js" xlink:title="Preview.js">
<path fill="#ffffcc" stroke="black" d="M330.28,-161.03C330.28,-161.03 285.57,-161.03 285.57,-161.03 282.74,-161.03 279.9,-158.2 279.9,-155.37 279.9,-155.37 279.9,-149.7 279.9,-149.7 279.9,-146.87 282.74,-144.03 285.57,-144.03 285.57,-144.03 330.28,-144.03 330.28,-144.03 333.11,-144.03 335.94,-146.87 335.94,-149.7 335.94,-149.7 335.94,-155.37 335.94,-155.37 335.94,-158.2 333.11,-161.03 330.28,-161.03"/>
<text text-anchor="middle" x="307.92" y="-149.83" font-family="Helvetica,sans-Serif" font-size="9.00">Preview.js</text>
</a>
</g>
</g>
<!-- src/components/ControlPanel.js&#45;&gt;src/components/Preview.js -->
<g id="edge8" class="edge">
<title>src/components/ControlPanel.js&#45;&gt;src/components/Preview.js</title>
<path fill="none" stroke="#000000" stroke-width="2" stroke-opacity="0.200000" d="M236.09,-152.53C248.28,-152.53 261.71,-152.53 273.57,-152.53"/>
<polygon fill="#000000" fill-opacity="0.200000" stroke="#000000" stroke-width="2" stroke-opacity="0.200000" points="273.61,-154.63 279.61,-152.53 273.61,-150.43 273.61,-154.63"/>
</g>
<!-- src/components/ShortcutButtonsGroup.js -->
<g id="node9" class="node">
<title>src/components/ShortcutButtonsGroup.js</title>
<g id="a_node9"><a xlink:href="src/components/ShortcutButtonsGroup.js" xlink:title="ShortcutButtonsGroup.js">
<path fill="#ffffcc" stroke="black" d="M359.31,-190.03C359.31,-190.03 256.54,-190.03 256.54,-190.03 253.7,-190.03 250.87,-187.2 250.87,-184.37 250.87,-184.37 250.87,-178.7 250.87,-178.7 250.87,-175.87 253.7,-173.03 256.54,-173.03 256.54,-173.03 359.31,-173.03 359.31,-173.03 362.14,-173.03 364.97,-175.87 364.97,-178.7 364.97,-178.7 364.97,-184.37 364.97,-184.37 364.97,-187.2 362.14,-190.03 359.31,-190.03"/>
<text text-anchor="middle" x="307.92" y="-178.83" font-family="Helvetica,sans-Serif" font-size="9.00">ShortcutButtonsGroup.js</text>
</a>
</g>
</g>
<!-- src/components/ControlPanel.js&#45;&gt;src/components/ShortcutButtonsGroup.js -->
<g id="edge9" class="edge">
<title>src/components/ControlPanel.js&#45;&gt;src/components/ShortcutButtonsGroup.js</title>
<path fill="none" stroke="#000000" stroke-width="2" stroke-opacity="0.200000" d="M227.53,-161.04C235.12,-163.21 243.31,-165.5 250.9,-167.53 255.77,-168.84 260.89,-170.17 265.97,-171.47"/>
<polygon fill="#000000" fill-opacity="0.200000" stroke="#000000" stroke-width="2" stroke-opacity="0.200000" points="265.58,-173.54 271.91,-172.98 266.61,-169.47 265.58,-173.54"/>
</g>
<!-- src/components/IdeasWrapper.js&#45;&gt;src/App.css -->
<g id="edge12" class="edge">
<title>src/components/IdeasWrapper.js&#45;&gt;src/App.css</title>
<path fill="none" stroke="#000000" stroke-width="2" stroke-opacity="0.200000" d="M225.13,-114.97C233.31,-112.74 242.4,-110.65 250.9,-109.53 333.12,-98.75 431.07,-106.35 480.71,-111.64"/>
<polygon fill="#000000" fill-opacity="0.200000" stroke="#000000" stroke-width="2" stroke-opacity="0.200000" points="480.62,-113.74 486.81,-112.3 481.07,-109.56 480.62,-113.74"/>
</g>
<!-- src/components/IdeasWrapper.js&#45;&gt;src/helpers/expandTextarea.js -->
<g id="edge13" class="edge">
<title>src/components/IdeasWrapper.js&#45;&gt;src/helpers/expandTextarea.js</title>
<path fill="none" stroke="#000000" stroke-width="2" stroke-opacity="0.200000" d="M233.9,-114.8C235.33,-113.82 236.67,-112.74 237.9,-111.53 251.24,-98.44 237.12,-84.17 250.9,-71.53 253.04,-69.57 255.42,-67.89 257.95,-66.44"/>
<polygon fill="#000000" fill-opacity="0.200000" stroke="#000000" stroke-width="2" stroke-opacity="0.200000" points="258.88,-68.33 263.34,-63.8 257.03,-64.55 258.88,-68.33"/>
</g>
<!-- src/components/Idea.js -->
<g id="node10" class="node">
<title>src/components/Idea.js</title>
<g id="a_node10"><a xlink:href="src/components/Idea.js" xlink:title="Idea.js">
<path fill="#ffffcc" stroke="black" d="M329.26,-132.03C329.26,-132.03 286.59,-132.03 286.59,-132.03 283.76,-132.03 280.92,-129.2 280.92,-126.37 280.92,-126.37 280.92,-120.7 280.92,-120.7 280.92,-117.87 283.76,-115.03 286.59,-115.03 286.59,-115.03 329.26,-115.03 329.26,-115.03 332.09,-115.03 334.92,-117.87 334.92,-120.7 334.92,-120.7 334.92,-126.37 334.92,-126.37 334.92,-129.2 332.09,-132.03 329.26,-132.03"/>
<text text-anchor="middle" x="307.92" y="-120.83" font-family="Helvetica,sans-Serif" font-size="9.00">Idea.js</text>
</a>
</g>
</g>
<!-- src/components/IdeasWrapper.js&#45;&gt;src/components/Idea.js -->
<g id="edge14" class="edge">
<title>src/components/IdeasWrapper.js&#45;&gt;src/components/Idea.js</title>
<path fill="none" stroke="#000000" stroke-width="2" stroke-opacity="0.200000" d="M237.92,-123.53C249.98,-123.53 263.1,-123.53 274.63,-123.53"/>
<polygon fill="#000000" fill-opacity="0.200000" stroke="#000000" stroke-width="2" stroke-opacity="0.200000" points="274.85,-125.63 280.85,-123.53 274.85,-121.43 274.85,-125.63"/>
</g>
<!-- src/App.test.js -->
<g id="node5" class="node">
<title>src/App.test.js</title>
<g id="a_node5"><a xlink:href="src/App.test.js" xlink:title="App.test.js">
<path fill="#ffffcc" stroke="black" d="M68.36,-132.03C68.36,-132.03 21.66,-132.03 21.66,-132.03 18.82,-132.03 15.99,-129.2 15.99,-126.37 15.99,-126.37 15.99,-120.7 15.99,-120.7 15.99,-117.87 18.82,-115.03 21.66,-115.03 21.66,-115.03 68.36,-115.03 68.36,-115.03 71.2,-115.03 74.03,-117.87 74.03,-120.7 74.03,-120.7 74.03,-126.37 74.03,-126.37 74.03,-129.2 71.2,-132.03 68.36,-132.03"/>
<text text-anchor="middle" x="45.01" y="-120.83" font-family="Helvetica,sans-Serif" font-size="9.00">App.test.js</text>
</a>
</g>
</g>
<!-- src/App.test.js&#45;&gt;src/App.js -->
<g id="edge4" class="edge">
<title>src/App.test.js&#45;&gt;src/App.js</title>
<path fill="none" stroke="#000000" stroke-width="2" stroke-opacity="0.200000" d="M74.04,-123.53C76.12,-123.53 78.23,-123.53 80.33,-123.53"/>
<polygon fill="#000000" fill-opacity="0.200000" stroke="#000000" stroke-width="2" stroke-opacity="0.200000" points="80.6,-125.63 86.6,-123.53 80.6,-121.43 80.6,-125.63"/>
</g>
<!-- src/components/CollapsingButton.js -->
<g id="node6" class="node">
<title>src/components/CollapsingButton.js</title>
<g id="a_node6"><a xlink:href="src/components/CollapsingButton.js" xlink:title="CollapsingButton.js">
<path fill="#ffffcc" stroke="black" d="M465.35,-146.03C465.35,-146.03 383.59,-146.03 383.59,-146.03 380.76,-146.03 377.93,-143.2 377.93,-140.37 377.93,-140.37 377.93,-134.7 377.93,-134.7 377.93,-131.87 380.76,-129.03 383.59,-129.03 383.59,-129.03 465.35,-129.03 465.35,-129.03 468.18,-129.03 471.02,-131.87 471.02,-134.7 471.02,-134.7 471.02,-140.37 471.02,-140.37 471.02,-143.2 468.18,-146.03 465.35,-146.03"/>
<text text-anchor="middle" x="424.47" y="-134.83" font-family="Helvetica,sans-Serif" font-size="9.00">CollapsingButton.js</text>
</a>
</g>
</g>
<!-- src/components/CollapsingButton.js&#45;&gt;src/App.css -->
<g id="edge5" class="edge">
<title>src/components/CollapsingButton.js&#45;&gt;src/App.css</title>
<path fill="none" stroke="#000000" stroke-width="2" stroke-opacity="0.200000" d="M465,-128.98C469.73,-127.87 474.48,-126.7 478.99,-125.53 479.62,-125.37 480.25,-125.21 480.89,-125.04"/>
<polygon fill="#000000" fill-opacity="0.200000" stroke="#000000" stroke-width="2" stroke-opacity="0.200000" points="481.45,-127.06 486.68,-123.46 480.34,-123.01 481.45,-127.06"/>
</g>
<!-- src/components/Preview.js&#45;&gt;src/App.css -->
<g id="edge15" class="edge">
<title>src/components/Preview.js&#45;&gt;src/App.css</title>
<path fill="none" stroke="#000000" stroke-width="2" stroke-opacity="0.200000" d="M336.21,-159.01C371,-165.85 432.22,-173.07 478.99,-152.53 489.64,-147.86 498.41,-138.03 504.38,-129.67"/>
<polygon fill="#000000" fill-opacity="0.200000" stroke="#000000" stroke-width="2" stroke-opacity="0.200000" points="506.45,-130.36 508.05,-124.21 502.96,-128.02 506.45,-130.36"/>
</g>
<!-- src/components/ShortcutButtonsGroup.js&#45;&gt;src/App.css -->
<g id="edge16" class="edge">
<title>src/components/ShortcutButtonsGroup.js&#45;&gt;src/App.css</title>
<path fill="none" stroke="#000000" stroke-width="2" stroke-opacity="0.200000" d="M365.34,-186.38C400.29,-186.79 444.86,-182.44 478.99,-162.53 491.77,-155.09 501.07,-140.72 506.68,-129.83"/>
<polygon fill="#000000" fill-opacity="0.200000" stroke="#000000" stroke-width="2" stroke-opacity="0.200000" points="508.69,-130.51 509.42,-124.19 504.91,-128.67 508.69,-130.51"/>
</g>
<!-- src/components/Idea.js&#45;&gt;src/App.css -->
<g id="edge10" class="edge">
<title>src/components/Idea.js&#45;&gt;src/App.css</title>
<path fill="none" stroke="#000000" stroke-width="2" stroke-opacity="0.200000" d="M335.18,-122.5C372.38,-121.05 440.35,-118.38 480.62,-116.8"/>
<polygon fill="#000000" fill-opacity="0.200000" stroke="#000000" stroke-width="2" stroke-opacity="0.200000" points="480.92,-118.89 486.83,-116.56 480.75,-114.7 480.92,-118.89"/>
</g>
<!-- src/components/Idea.js&#45;&gt;src/components/CollapsingButton.js -->
<g id="edge11" class="edge">
<title>src/components/Idea.js&#45;&gt;src/components/CollapsingButton.js</title>
<path fill="none" stroke="#000000" stroke-width="2" stroke-opacity="0.200000" d="M335.2,-126.75C345.99,-128.06 358.87,-129.64 371.42,-131.17"/>
<polygon fill="#000000" fill-opacity="0.200000" stroke="#000000" stroke-width="2" stroke-opacity="0.200000" points="371.33,-133.28 377.54,-131.92 371.84,-129.11 371.33,-133.28"/>
</g>
<!-- src/index.css -->
<g id="node11" class="node">
<title>src/index.css</title>
<g id="a_node11"><a xlink:href="src/index.css" xlink:title="index.css">
<path fill="#ffffcc" stroke="black" d="M135.35,-161.03C135.35,-161.03 92.69,-161.03 92.69,-161.03 89.85,-161.03 87.02,-158.2 87.02,-155.37 87.02,-155.37 87.02,-149.7 87.02,-149.7 87.02,-146.87 89.85,-144.03 92.69,-144.03 92.69,-144.03 135.35,-144.03 135.35,-144.03 138.19,-144.03 141.02,-146.87 141.02,-149.7 141.02,-149.7 141.02,-155.37 141.02,-155.37 141.02,-158.2 138.19,-161.03 135.35,-161.03"/>
<text text-anchor="middle" x="114.02" y="-149.83" font-family="Helvetica,sans-Serif" font-size="9.00">index.css</text>
</a>
</g>
</g>
<!-- src/index.js -->
<g id="node12" class="node">
<title>src/index.js</title>
<g id="a_node12"><a xlink:href="src/index.js" xlink:title="index.js">
<path fill="#ffffcc" stroke="black" d="M66.34,-161.03C66.34,-161.03 23.68,-161.03 23.68,-161.03 20.84,-161.03 18.01,-158.2 18.01,-155.37 18.01,-155.37 18.01,-149.7 18.01,-149.7 18.01,-146.87 20.84,-144.03 23.68,-144.03 23.68,-144.03 66.34,-144.03 66.34,-144.03 69.18,-144.03 72.01,-146.87 72.01,-149.7 72.01,-149.7 72.01,-155.37 72.01,-155.37 72.01,-158.2 69.18,-161.03 66.34,-161.03"/>
<text text-anchor="middle" x="45.01" y="-149.83" font-family="Helvetica,sans-Serif" font-size="9.00">index.js</text>
</a>
</g>
</g>
<!-- src/index.js&#45;&gt;src/App.js -->
<g id="edge17" class="edge">
<title>src/index.js&#45;&gt;src/App.js</title>
<path fill="none" stroke="#000000" stroke-width="2" stroke-opacity="0.200000" d="M65.75,-143.99C72.51,-141.07 80.17,-137.75 87.33,-134.65"/>
<polygon fill="#000000" fill-opacity="0.200000" stroke="#000000" stroke-width="2" stroke-opacity="0.200000" points="88.51,-136.43 93.19,-132.12 86.85,-132.57 88.51,-136.43"/>
</g>
<!-- src/index.js&#45;&gt;src/index.css -->
<g id="edge18" class="edge">
<title>src/index.js&#45;&gt;src/index.css</title>
<path fill="none" stroke="#000000" stroke-width="2" stroke-opacity="0.200000" d="M72.11,-152.53C74.84,-152.53 77.64,-152.53 80.43,-152.53"/>
<polygon fill="#000000" fill-opacity="0.200000" stroke="#000000" stroke-width="2" stroke-opacity="0.200000" points="80.88,-154.63 86.88,-152.53 80.88,-150.43 80.88,-154.63"/>
</g>
</g>
</svg>
