<?xml version="1.0" encoding="UTF-8" standalone="no"?>
<!DOCTYPE svg PUBLIC "-//W3C//DTD SVG 1.1//EN"
 "http://www.w3.org/Graphics/SVG/1.1/DTD/svg11.dtd">
<!-- Generated by graphviz version 2.43.0 (0)
 -->
<!-- Title: dependency&#45;cruiser output Pages: 1 -->
<svg width="565pt" height="290pt"
 viewBox="0.00 0.00 564.99 290.13" xmlns="http://www.w3.org/2000/svg" xmlns:xlink="http://www.w3.org/1999/xlink">
<g id="graph0" class="graph" transform="scale(1 1) rotate(0) translate(4 286.13)">
<title>dependency&#45;cruiser output</title>
<polygon fill="white" stroke="transparent" points="-4,4 -4,-286.13 560.99,-286.13 560.99,4 -4,4"/>
<g id="clust1" class="cluster">
<title>cluster_src</title>
<path fill="#ffffff" stroke="black" stroke-width="2" d="M20,-14.13C20,-14.13 536.99,-14.13 536.99,-14.13 542.99,-14.13 548.99,-20.13 548.99,-26.13 548.99,-26.13 548.99,-262.13 548.99,-262.13 548.99,-268.13 542.99,-274.13 536.99,-274.13 536.99,-274.13 20,-274.13 20,-274.13 14,-274.13 8,-268.13 8,-262.13 8,-262.13 8,-26.13 8,-26.13 8,-20.13 14,-14.13 20,-14.13"/>
<text text-anchor="middle" x="278.5" y="-262.93" font-family="Helvetica,sans-Serif" font-weight="bold" font-size="9.00">src</text>
</g>
<g id="clust2" class="cluster">
<title>cluster_src/components</title>
<path fill="#ffffff" stroke="black" stroke-width="2" d="M161.02,-140.13C161.02,-140.13 466.99,-140.13 466.99,-140.13 472.99,-140.13 478.99,-146.13 478.99,-152.13 478.99,-152.13 478.99,-237.13 478.99,-237.13 478.99,-243.13 472.99,-249.13 466.99,-249.13 466.99,-249.13 161.02,-249.13 161.02,-249.13 155.02,-249.13 149.02,-243.13 149.02,-237.13 149.02,-237.13 149.02,-152.13 149.02,-152.13 149.02,-146.13 155.02,-140.13 161.02,-140.13"/>
<text text-anchor="middle" x="314.01" y="-237.93" font-family="Helvetica,sans-Serif" font-weight="bold" font-size="9.00">components</text>
</g>
<g id="clust3" class="cluster">
<title>cluster_src/helpers</title>
<path fill="#ffffff" stroke="black" stroke-width="2" d="M267.4,-46.13C267.4,-46.13 348.45,-46.13 348.45,-46.13 354.45,-46.13 360.45,-52.13 360.45,-58.13 360.45,-58.13 360.45,-114.13 360.45,-114.13 360.45,-120.13 354.45,-126.13 348.45,-126.13 348.45,-126.13 267.4,-126.13 267.4,-126.13 261.4,-126.13 255.4,-120.13 255.4,-114.13 255.4,-114.13 255.4,-58.13 255.4,-58.13 255.4,-52.13 261.4,-46.13 267.4,-46.13"/>
<text text-anchor="middle" x="307.92" y="-114.93" font-family="Helvetica,sans-Serif" font-weight="bold" font-size="9.00">helpers</text>
</g>
<!-- src/App.css -->
<g id="node1" class="node">
<title>src/App.css</title>
<g id="a_node1"><a xlink:href="src/App.css" xlink:title="App.css">
<path fill="#ffffcc" stroke="black" d="M535.33,-157.63C535.33,-157.63 492.66,-157.63 492.66,-157.63 489.83,-157.63 486.99,-154.79 486.99,-151.96 486.99,-151.96 486.99,-146.29 486.99,-146.29 486.99,-143.46 489.83,-140.63 492.66,-140.63 492.66,-140.63 535.33,-140.63 535.33,-140.63 538.16,-140.63 540.99,-143.46 540.99,-146.29 540.99,-146.29 540.99,-151.96 540.99,-151.96 540.99,-154.79 538.16,-157.63 535.33,-157.63"/>
<text text-anchor="middle" x="513.99" y="-146.43" font-family="Helvetica,sans-Serif" font-size="9.00">App.css</text>
</a>
</g>
</g>
<!-- src/App.js -->
<g id="node2" class="node">
<title>src/App.js</title>
<g id="a_node2"><a xlink:href="src/App.js" xlink:title="App.js">
<path fill="#ffffcc" stroke="black" d="M135.35,-165.63C135.35,-165.63 92.69,-165.63 92.69,-165.63 89.85,-165.63 87.02,-162.79 87.02,-159.96 87.02,-159.96 87.02,-154.29 87.02,-154.29 87.02,-151.46 89.85,-148.63 92.69,-148.63 92.69,-148.63 135.35,-148.63 135.35,-148.63 138.19,-148.63 141.02,-151.46 141.02,-154.29 141.02,-154.29 141.02,-159.96 141.02,-159.96 141.02,-162.79 138.19,-165.63 135.35,-165.63"/>
<text text-anchor="middle" x="114.02" y="-154.43" font-family="Helvetica,sans-Serif" font-size="9.00">App.js</text>
</a>
</g>
</g>
<!-- src/App.js&#45;&gt;src/App.css -->
<g id="edge1" class="edge">
<title>src/App.js&#45;&gt;src/App.css</title>
<path fill="none" stroke="#000000" stroke-width="2" stroke-opacity="0.200000" d="M120.75,-148.43C137.35,-124.12 188.3,-55.68 250.9,-31.13 345.45,5.97 400.56,19.41 478.99,-45.13 505.96,-67.32 511.73,-111.27 512.84,-134.29"/>
<polygon fill="#000000" fill-opacity="0.200000" stroke="#000000" stroke-width="2" stroke-opacity="0.200000" points="510.75,-134.53 513.05,-140.45 514.94,-134.38 510.75,-134.53"/>
</g>
<!-- src/components/ControlPanel.js -->
<g id="node3" class="node">
<title>src/components/ControlPanel.js</title>
<g id="a_node3"><a xlink:href="src/components/ControlPanel.js" xlink:title="ControlPanel.js">
<path fill="#ffffcc" stroke="black" d="M230.32,-194.63C230.32,-194.63 164.59,-194.63 164.59,-194.63 161.76,-194.63 158.93,-191.79 158.93,-188.96 158.93,-188.96 158.93,-183.29 158.93,-183.29 158.93,-180.46 161.76,-177.63 164.59,-177.63 164.59,-177.63 230.32,-177.63 230.32,-177.63 233.16,-177.63 235.99,-180.46 235.99,-183.29 235.99,-183.29 235.99,-188.96 235.99,-188.96 235.99,-191.79 233.16,-194.63 230.32,-194.63"/>
<text text-anchor="middle" x="197.46" y="-183.43" font-family="Helvetica,sans-Serif" font-size="9.00">ControlPanel.js</text>
</a>
</g>
</g>
<!-- src/App.js&#45;&gt;src/components/ControlPanel.js -->
<g id="edge2" class="edge">
<title>src/App.js&#45;&gt;src/components/ControlPanel.js</title>
<path fill="none" stroke="#000000" stroke-width="2" stroke-opacity="0.200000" d="M133.2,-165.66C138.26,-167.9 143.81,-170.22 149.02,-172.13 152.38,-173.36 155.9,-174.56 159.44,-175.71"/>
<polygon fill="#000000" fill-opacity="0.200000" stroke="#000000" stroke-width="2" stroke-opacity="0.200000" points="159.04,-177.78 165.39,-177.58 160.3,-173.78 159.04,-177.78"/>
</g>
<!-- src/components/IdeasWrapper.js -->
<g id="node4" class="node">
<title>src/components/IdeasWrapper.js</title>
<g id="a_node4"><a xlink:href="src/components/IdeasWrapper.js" xlink:title="IdeasWrapper.js">
<path fill="#ffffcc" stroke="black" d="M232.17,-165.63C232.17,-165.63 162.75,-165.63 162.75,-165.63 159.92,-165.63 157.08,-162.79 157.08,-159.96 157.08,-159.96 157.08,-154.29 157.08,-154.29 157.08,-151.46 159.92,-148.63 162.75,-148.63 162.75,-148.63 232.17,-148.63 232.17,-148.63 235,-148.63 237.84,-151.46 237.84,-154.29 237.84,-154.29 237.84,-159.96 237.84,-159.96 237.84,-162.79 235,-165.63 232.17,-165.63"/>
<text text-anchor="middle" x="197.46" y="-154.43" font-family="Helvetica,sans-Serif" font-size="9.00">IdeasWrapper.js</text>
</a>
</g>
</g>
<!-- src/App.js&#45;&gt;src/components/IdeasWrapper.js -->
<g id="edge3" class="edge">
<title>src/App.js&#45;&gt;src/components/IdeasWrapper.js</title>
<path fill="none" stroke="#000000" stroke-width="2" stroke-opacity="0.200000" d="M141.24,-157.13C144.22,-157.13 147.32,-157.13 150.46,-157.13"/>
<polygon fill="#000000" fill-opacity="0.200000" stroke="#000000" stroke-width="2" stroke-opacity="0.200000" points="150.95,-159.23 156.95,-157.13 150.95,-155.03 150.95,-159.23"/>
</g>
<!-- src/components/ControlPanel.js&#45;&gt;src/App.css -->
<g id="edge6" class="edge">
<title>src/components/ControlPanel.js&#45;&gt;src/App.css</title>
<path fill="none" stroke="#000000" stroke-width="2" stroke-opacity="0.200000" d="M232.2,-177.44C234.34,-175.94 236.28,-174.18 237.9,-172.13 255.68,-149.46 229.53,-62.45 250.9,-43.13 269.7,-26.13 340.82,-35.38 364.95,-43.13 422.79,-61.7 477.22,-112.13 500.76,-136.11"/>
<polygon fill="#000000" fill-opacity="0.200000" stroke="#000000" stroke-width="2" stroke-opacity="0.200000" points="499.37,-137.69 505.05,-140.54 502.39,-134.77 499.37,-137.69"/>
</g>
<!-- src/helpers/expandTextarea.js -->
<g id="node7" class="node">
<title>src/helpers/expandTextarea.js</title>
<g id="a_node7"><a xlink:href="src/helpers/expandTextarea.js" xlink:title="expandTextarea.js">
<path fill="#ffffcc" stroke="black" d="M346.8,-100.63C346.8,-100.63 269.04,-100.63 269.04,-100.63 266.21,-100.63 263.38,-97.79 263.38,-94.96 263.38,-94.96 263.38,-89.29 263.38,-89.29 263.38,-86.46 266.21,-83.63 269.04,-83.63 269.04,-83.63 346.8,-83.63 346.8,-83.63 349.63,-83.63 352.47,-86.46 352.47,-89.29 352.47,-89.29 352.47,-94.96 352.47,-94.96 352.47,-97.79 349.63,-100.63 346.8,-100.63"/>
<text text-anchor="middle" x="307.92" y="-89.43" font-family="Helvetica,sans-Serif" font-size="9.00">expandTextarea.js</text>
</a>
</g>
</g>
<!-- src/components/ControlPanel.js&#45;&gt;src/helpers/expandTextarea.js -->
<g id="edge7" class="edge">
<title>src/components/ControlPanel.js&#45;&gt;src/helpers/expandTextarea.js</title>
<path fill="none" stroke="#000000" stroke-width="2" stroke-opacity="0.200000" d="M230.5,-177.62C233.2,-176.08 235.72,-174.27 237.9,-172.13 249.72,-160.48 241.19,-150.59 250.9,-137.13 260.52,-123.79 275.08,-112.26 286.95,-104.21"/>
<polygon fill="#000000" fill-opacity="0.200000" stroke="#000000" stroke-width="2" stroke-opacity="0.200000" points="288.33,-105.81 292.19,-100.76 286.02,-102.3 288.33,-105.81"/>
</g>
<!-- src/helpers/useRedux.js -->
<g id="node8" class="node">
<title>src/helpers/useRedux.js</title>
<g id="a_node8"><a xlink:href="src/helpers/useRedux.js" xlink:title="useRedux.js">
<path fill="#ffffcc" stroke="black" d="M334.78,-71.63C334.78,-71.63 281.06,-71.63 281.06,-71.63 278.23,-71.63 275.39,-68.79 275.39,-65.96 275.39,-65.96 275.39,-60.29 275.39,-60.29 275.39,-57.46 278.23,-54.63 281.06,-54.63 281.06,-54.63 334.78,-54.63 334.78,-54.63 337.62,-54.63 340.45,-57.46 340.45,-60.29 340.45,-60.29 340.45,-65.96 340.45,-65.96 340.45,-68.79 337.62,-71.63 334.78,-71.63"/>
<text text-anchor="middle" x="307.92" y="-60.43" font-family="Helvetica,sans-Serif" font-size="9.00">useRedux.js</text>
</a>
</g>
</g>
<!-- src/components/ControlPanel.js&#45;&gt;src/helpers/useRedux.js -->
<g id="edge8" class="edge">
<title>src/components/ControlPanel.js&#45;&gt;src/helpers/useRedux.js</title>
<path fill="none" stroke="#000000" stroke-width="2" stroke-opacity="0.200000" d="M231.75,-177.62C234.06,-176.08 236.15,-174.27 237.9,-172.13 264.53,-139.43 222.98,-109.74 250.9,-78.13 255.74,-72.64 262.35,-69.06 269.32,-66.75"/>
<polygon fill="#000000" fill-opacity="0.200000" stroke="#000000" stroke-width="2" stroke-opacity="0.200000" points="270.03,-68.73 275.24,-65.09 268.9,-64.69 270.03,-68.73"/>
</g>
<!-- src/components/Preview.js -->
<g id="node9" class="node">
<title>src/components/Preview.js</title>
<g id="a_node9"><a xlink:href="src/components/Preview.js" xlink:title="Preview.js">
<path fill="#ffffcc" stroke="black" d="M330.28,-223.63C330.28,-223.63 285.57,-223.63 285.57,-223.63 282.74,-223.63 279.9,-220.79 279.9,-217.96 279.9,-217.96 279.9,-212.29 279.9,-212.29 279.9,-209.46 282.74,-206.63 285.57,-206.63 285.57,-206.63 330.28,-206.63 330.28,-206.63 333.11,-206.63 335.94,-209.46 335.94,-212.29 335.94,-212.29 335.94,-217.96 335.94,-217.96 335.94,-220.79 333.11,-223.63 330.28,-223.63"/>
<text text-anchor="middle" x="307.92" y="-212.43" font-family="Helvetica,sans-Serif" font-size="9.00">Preview.js</text>
</a>
</g>
</g>
<!-- src/components/ControlPanel.js&#45;&gt;src/components/Preview.js -->
<g id="edge9" class="edge">
<title>src/components/ControlPanel.js&#45;&gt;src/components/Preview.js</title>
<path fill="none" stroke="#000000" stroke-width="2" stroke-opacity="0.200000" d="M227.53,-194.63C235.12,-196.8 243.31,-199.09 250.9,-201.13 258.24,-203.09 266.14,-205.12 273.63,-207"/>
<polygon fill="#000000" fill-opacity="0.200000" stroke="#000000" stroke-width="2" stroke-opacity="0.200000" points="273.47,-209.13 279.8,-208.55 274.49,-205.05 273.47,-209.13"/>
</g>
<!-- src/components/ShortcutButtonsGroup.js -->
<g id="node10" class="node">
<title>src/components/ShortcutButtonsGroup.js</title>
<g id="a_node10"><a xlink:href="src/components/ShortcutButtonsGroup.js" xlink:title="ShortcutButtonsGroup.js">
<path fill="#ffffcc" stroke="black" d="M359.31,-194.63C359.31,-194.63 256.54,-194.63 256.54,-194.63 253.7,-194.63 250.87,-191.79 250.87,-188.96 250.87,-188.96 250.87,-183.29 250.87,-183.29 250.87,-180.46 253.7,-177.63 256.54,-177.63 256.54,-177.63 359.31,-177.63 359.31,-177.63 362.14,-177.63 364.97,-180.46 364.97,-183.29 364.97,-183.29 364.97,-188.96 364.97,-188.96 364.97,-191.79 362.14,-194.63 359.31,-194.63"/>
<text text-anchor="middle" x="307.92" y="-183.43" font-family="Helvetica,sans-Serif" font-size="9.00">ShortcutButtonsGroup.js</text>
</a>
</g>
</g>
<!-- src/components/ControlPanel.js&#45;&gt;src/components/ShortcutButtonsGroup.js -->
<g id="edge10" class="edge">
<title>src/components/ControlPanel.js&#45;&gt;src/components/ShortcutButtonsGroup.js</title>
<path fill="none" stroke="#000000" stroke-width="2" stroke-opacity="0.200000" d="M236.09,-186.13C238.92,-186.13 241.82,-186.13 244.76,-186.13"/>
<polygon fill="#000000" fill-opacity="0.200000" stroke="#000000" stroke-width="2" stroke-opacity="0.200000" points="244.81,-188.23 250.81,-186.13 244.81,-184.03 244.81,-188.23"/>
</g>
<!-- src/components/IdeasWrapper.js&#45;&gt;src/App.css -->
<g id="edge13" class="edge">
<title>src/components/IdeasWrapper.js&#45;&gt;src/App.css</title>
<path fill="none" stroke="#000000" stroke-width="2" stroke-opacity="0.200000" d="M225.13,-148.57C233.31,-146.33 242.4,-144.24 250.9,-143.13 333.12,-132.34 431.07,-139.95 480.71,-145.23"/>
<polygon fill="#000000" fill-opacity="0.200000" stroke="#000000" stroke-width="2" stroke-opacity="0.200000" points="480.62,-147.33 486.81,-145.89 481.07,-143.16 480.62,-147.33"/>
</g>
<!-- src/components/IdeasWrapper.js&#45;&gt;src/helpers/expandTextarea.js -->
<g id="edge14" class="edge">
<title>src/components/IdeasWrapper.js&#45;&gt;src/helpers/expandTextarea.js</title>
<path fill="none" stroke="#000000" stroke-width="2" stroke-opacity="0.200000" d="M233.9,-148.39C235.33,-147.41 236.67,-146.33 237.9,-145.13 251.24,-132.03 237.12,-117.76 250.9,-105.13 253.04,-103.16 255.42,-101.48 257.95,-100.03"/>
<polygon fill="#000000" fill-opacity="0.200000" stroke="#000000" stroke-width="2" stroke-opacity="0.200000" points="258.88,-101.92 263.34,-97.39 257.03,-98.15 258.88,-101.92"/>
</g>
<!-- src/components/IdeasWrapper.js&#45;&gt;src/helpers/useRedux.js -->
<g id="edge15" class="edge">
<title>src/components/IdeasWrapper.js&#45;&gt;src/helpers/useRedux.js</title>
<path fill="none" stroke="#000000" stroke-width="2" stroke-opacity="0.200000" d="M234.09,-148.57C235.47,-147.54 236.75,-146.4 237.9,-145.13 258.21,-122.59 230.21,-100.31 250.9,-78.13 255.83,-72.83 262.41,-69.33 269.33,-67.03"/>
<polygon fill="#000000" fill-opacity="0.200000" stroke="#000000" stroke-width="2" stroke-opacity="0.200000" points="269.98,-69.02 275.18,-65.37 268.84,-64.98 269.98,-69.02"/>
</g>
<!-- src/components/Idea.js -->
<g id="node11" class="node">
<title>src/components/Idea.js</title>
<g id="a_node11"><a xlink:href="src/components/Idea.js" xlink:title="Idea.js">
<path fill="#ffffcc" stroke="black" d="M329.26,-165.63C329.26,-165.63 286.59,-165.63 286.59,-165.63 283.76,-165.63 280.92,-162.79 280.92,-159.96 280.92,-159.96 280.92,-154.29 280.92,-154.29 280.92,-151.46 283.76,-148.63 286.59,-148.63 286.59,-148.63 329.26,-148.63 329.26,-148.63 332.09,-148.63 334.92,-151.46 334.92,-154.29 334.92,-154.29 334.92,-159.96 334.92,-159.96 334.92,-162.79 332.09,-165.63 329.26,-165.63"/>
<text text-anchor="middle" x="307.92" y="-154.43" font-family="Helvetica,sans-Serif" font-size="9.00">Idea.js</text>
</a>
</g>
</g>
<!-- src/components/IdeasWrapper.js&#45;&gt;src/components/Idea.js -->
<g id="edge16" class="edge">
<title>src/components/IdeasWrapper.js&#45;&gt;src/components/Idea.js</title>
<path fill="none" stroke="#000000" stroke-width="2" stroke-opacity="0.200000" d="M237.92,-157.13C249.98,-157.13 263.1,-157.13 274.63,-157.13"/>
<polygon fill="#000000" fill-opacity="0.200000" stroke="#000000" stroke-width="2" stroke-opacity="0.200000" points="274.85,-159.23 280.85,-157.13 274.85,-155.03 274.85,-159.23"/>
</g>
<!-- src/App.test.js -->
<g id="node5" class="node">
<title>src/App.test.js</title>
<g id="a_node5"><a xlink:href="src/App.test.js" xlink:title="App.test.js">
<path fill="#ffffcc" stroke="black" d="M68.36,-165.63C68.36,-165.63 21.66,-165.63 21.66,-165.63 18.82,-165.63 15.99,-162.79 15.99,-159.96 15.99,-159.96 15.99,-154.29 15.99,-154.29 15.99,-151.46 18.82,-148.63 21.66,-148.63 21.66,-148.63 68.36,-148.63 68.36,-148.63 71.2,-148.63 74.03,-151.46 74.03,-154.29 74.03,-154.29 74.03,-159.96 74.03,-159.96 74.03,-162.79 71.2,-165.63 68.36,-165.63"/>
<text text-anchor="middle" x="45.01" y="-154.43" font-family="Helvetica,sans-Serif" font-size="9.00">App.test.js</text>
</a>
</g>
</g>
<!-- src/App.test.js&#45;&gt;src/App.js -->
<g id="edge4" class="edge">
<title>src/App.test.js&#45;&gt;src/App.js</title>
<path fill="none" stroke="#000000" stroke-width="2" stroke-opacity="0.200000" d="M74.04,-157.13C76.12,-157.13 78.23,-157.13 80.33,-157.13"/>
<polygon fill="#000000" fill-opacity="0.200000" stroke="#000000" stroke-width="2" stroke-opacity="0.200000" points="80.6,-159.23 86.6,-157.13 80.6,-155.03 80.6,-159.23"/>
</g>
<!-- src/components/CollapsingButton.js -->
<g id="node6" class="node">
<title>src/components/CollapsingButton.js</title>
<g id="a_node6"><a xlink:href="src/components/CollapsingButton.js" xlink:title="CollapsingButton.js">
<path fill="#ffffcc" stroke="black" d="M465.35,-179.63C465.35,-179.63 383.59,-179.63 383.59,-179.63 380.76,-179.63 377.93,-176.79 377.93,-173.96 377.93,-173.96 377.93,-168.29 377.93,-168.29 377.93,-165.46 380.76,-162.63 383.59,-162.63 383.59,-162.63 465.35,-162.63 465.35,-162.63 468.18,-162.63 471.02,-165.46 471.02,-168.29 471.02,-168.29 471.02,-173.96 471.02,-173.96 471.02,-176.79 468.18,-179.63 465.35,-179.63"/>
<text text-anchor="middle" x="424.47" y="-168.43" font-family="Helvetica,sans-Serif" font-size="9.00">CollapsingButton.js</text>
</a>
</g>
</g>
<!-- src/components/CollapsingButton.js&#45;&gt;src/App.css -->
<g id="edge5" class="edge">
<title>src/components/CollapsingButton.js&#45;&gt;src/App.css</title>
<path fill="none" stroke="#000000" stroke-width="2" stroke-opacity="0.200000" d="M465,-162.57C469.73,-161.46 474.48,-160.3 478.99,-159.13 479.62,-158.96 480.25,-158.8 480.89,-158.63"/>
<polygon fill="#000000" fill-opacity="0.200000" stroke="#000000" stroke-width="2" stroke-opacity="0.200000" points="481.45,-160.65 486.68,-157.05 480.34,-156.6 481.45,-160.65"/>
</g>
<!-- src/components/Preview.js&#45;&gt;src/App.css -->
<g id="edge17" class="edge">
<title>src/components/Preview.js&#45;&gt;src/App.css</title>
<path fill="none" stroke="#000000" stroke-width="2" stroke-opacity="0.200000" d="M336.04,-218.52C371.46,-221.58 434.21,-222.24 478.99,-196.13 491.77,-188.68 501.07,-174.32 506.68,-163.42"/>
<polygon fill="#000000" fill-opacity="0.200000" stroke="#000000" stroke-width="2" stroke-opacity="0.200000" points="508.69,-164.1 509.42,-157.79 504.91,-162.27 508.69,-164.1"/>
</g>
<!-- src/components/ShortcutButtonsGroup.js&#45;&gt;src/App.css -->
<g id="edge18" class="edge">
<title>src/components/ShortcutButtonsGroup.js&#45;&gt;src/App.css</title>
<path fill="none" stroke="#000000" stroke-width="2" stroke-opacity="0.200000" d="M347.54,-194.66C383.24,-200.62 436.95,-204.59 478.99,-186.13 489.64,-181.45 498.41,-171.62 504.38,-163.27"/>
<polygon fill="#000000" fill-opacity="0.200000" stroke="#000000" stroke-width="2" stroke-opacity="0.200000" points="506.45,-163.95 508.05,-157.8 502.96,-161.61 506.45,-163.95"/>
</g>
<!-- src/components/Idea.js&#45;&gt;src/App.css -->
<g id="edge11" class="edge">
<title>src/components/Idea.js&#45;&gt;src/App.css</title>
<path fill="none" stroke="#000000" stroke-width="2" stroke-opacity="0.200000" d="M335.18,-156.1C372.38,-154.64 440.35,-151.97 480.62,-150.4"/>
<polygon fill="#000000" fill-opacity="0.200000" stroke="#000000" stroke-width="2" stroke-opacity="0.200000" points="480.92,-152.49 486.83,-150.15 480.75,-148.29 480.92,-152.49"/>
</g>
<!-- src/components/Idea.js&#45;&gt;src/components/CollapsingButton.js -->
<g id="edge12" class="edge">
<title>src/components/Idea.js&#45;&gt;src/components/CollapsingButton.js</title>
<path fill="none" stroke="#000000" stroke-width="2" stroke-opacity="0.200000" d="M335.2,-160.34C345.99,-161.66 358.87,-163.23 371.42,-164.76"/>
<polygon fill="#000000" fill-opacity="0.200000" stroke="#000000" stroke-width="2" stroke-opacity="0.200000" points="371.33,-166.87 377.54,-165.51 371.84,-162.7 371.33,-166.87"/>
</g>
<!-- src/index.css -->
<g id="node12" class="node">
<title>src/index.css</title>
<g id="a_node12"><a xlink:href="src/index.css" xlink:title="index.css">
<path fill="#ffffcc" stroke="black" d="M135.35,-194.63C135.35,-194.63 92.69,-194.63 92.69,-194.63 89.85,-194.63 87.02,-191.79 87.02,-188.96 87.02,-188.96 87.02,-183.29 87.02,-183.29 87.02,-180.46 89.85,-177.63 92.69,-177.63 92.69,-177.63 135.35,-177.63 135.35,-177.63 138.19,-177.63 141.02,-180.46 141.02,-183.29 141.02,-183.29 141.02,-188.96 141.02,-188.96 141.02,-191.79 138.19,-194.63 135.35,-194.63"/>
<text text-anchor="middle" x="114.02" y="-183.43" font-family="Helvetica,sans-Serif" font-size="9.00">index.css</text>
</a>
</g>
</g>
<!-- src/index.js -->
<g id="node13" class="node">
<title>src/index.js</title>
<g id="a_node13"><a xlink:href="src/index.js" xlink:title="index.js">
<path fill="#ffffcc" stroke="black" d="M66.34,-194.63C66.34,-194.63 23.68,-194.63 23.68,-194.63 20.84,-194.63 18.01,-191.79 18.01,-188.96 18.01,-188.96 18.01,-183.29 18.01,-183.29 18.01,-180.46 20.84,-177.63 23.68,-177.63 23.68,-177.63 66.34,-177.63 66.34,-177.63 69.18,-177.63 72.01,-180.46 72.01,-183.29 72.01,-183.29 72.01,-188.96 72.01,-188.96 72.01,-191.79 69.18,-194.63 66.34,-194.63"/>
<text text-anchor="middle" x="45.01" y="-183.43" font-family="Helvetica,sans-Serif" font-size="9.00">index.js</text>
</a>
</g>
</g>
<!-- src/index.js&#45;&gt;src/App.js -->
<g id="edge19" class="edge">
<title>src/index.js&#45;&gt;src/App.js</title>
<path fill="none" stroke="#000000" stroke-width="2" stroke-opacity="0.200000" d="M65.75,-177.58C72.51,-174.66 80.17,-171.34 87.33,-168.25"/>
<polygon fill="#000000" fill-opacity="0.200000" stroke="#000000" stroke-width="2" stroke-opacity="0.200000" points="88.51,-170.02 93.19,-165.71 86.85,-166.17 88.51,-170.02"/>
</g>
<!-- src/index.js&#45;&gt;src/index.css -->
<g id="edge20" class="edge">
<title>src/index.js&#45;&gt;src/index.css</title>
<path fill="none" stroke="#000000" stroke-width="2" stroke-opacity="0.200000" d="M72.11,-186.13C74.84,-186.13 77.64,-186.13 80.43,-186.13"/>
<polygon fill="#000000" fill-opacity="0.200000" stroke="#000000" stroke-width="2" stroke-opacity="0.200000" points="80.88,-188.23 86.88,-186.13 80.88,-184.03 80.88,-188.23"/>
</g>
</g>
</svg>
