<?xml version="1.0" encoding="UTF-8" standalone="no"?>
<!DOCTYPE svg PUBLIC "-//W3C//DTD SVG 1.1//EN"
 "http://www.w3.org/Graphics/SVG/1.1/DTD/svg11.dtd">
<!-- Generated by graphviz version 2.43.0 (0)
 -->
<!-- Title: dependency&#45;cruiser output Pages: 1 -->
<svg width="305pt" height="118pt"
 viewBox="0.00 0.00 305.02 118.00" xmlns="http://www.w3.org/2000/svg" xmlns:xlink="http://www.w3.org/1999/xlink">
<g id="graph0" class="graph" transform="scale(1 1) rotate(0) translate(4 114)">
<title>dependency&#45;cruiser output</title>
<polygon fill="white" stroke="transparent" points="-4,4 -4,-114 301.02,-114 301.02,4 -4,4"/>
<g id="clust1" class="cluster">
<title>cluster_src</title>
<path fill="#ffffff" stroke="black" stroke-width="2" d="M20,-8C20,-8 277.02,-8 277.02,-8 283.02,-8 289.02,-14 289.02,-20 289.02,-20 289.02,-90 289.02,-90 289.02,-96 283.02,-102 277.02,-102 277.02,-102 20,-102 20,-102 14,-102 8,-96 8,-90 8,-90 8,-20 8,-20 8,-14 14,-8 20,-8"/>
<text text-anchor="middle" x="148.51" y="-90.8" font-family="Helvetica,sans-Serif" font-weight="bold" font-size="9.00">src</text>
</g>
<g id="clust2" class="cluster">
<title>cluster_src/components</title>
<path fill="#ffffff" stroke="black" stroke-width="2" d="M161.02,-26C161.02,-26 207.02,-26 207.02,-26 213.02,-26 219.02,-32 219.02,-38 219.02,-38 219.02,-65 219.02,-65 219.02,-71 213.02,-77 207.02,-77 207.02,-77 161.02,-77 161.02,-77 155.02,-77 149.02,-71 149.02,-65 149.02,-65 149.02,-38 149.02,-38 149.02,-32 155.02,-26 161.02,-26"/>
<text text-anchor="middle" x="184.02" y="-65.8" font-family="Helvetica,sans-Serif" font-weight="bold" font-size="9.00">components</text>
</g>
<!-- src/App.css -->
<g id="node1" class="node">
<title>src/App.css</title>
<g id="a_node1"><a xlink:href="src/App.css" xlink:title="App.css">
<path fill="#ffffcc" stroke="black" d="M275.35,-42.5C275.35,-42.5 232.69,-42.5 232.69,-42.5 229.85,-42.5 227.02,-39.67 227.02,-36.83 227.02,-36.83 227.02,-31.17 227.02,-31.17 227.02,-28.33 229.85,-25.5 232.69,-25.5 232.69,-25.5 275.35,-25.5 275.35,-25.5 278.19,-25.5 281.02,-28.33 281.02,-31.17 281.02,-31.17 281.02,-36.83 281.02,-36.83 281.02,-39.67 278.19,-42.5 275.35,-42.5"/>
<text text-anchor="middle" x="254.02" y="-31.3" font-family="Helvetica,sans-Serif" font-size="9.00">App.css</text>
</a>
</g>
</g>
<!-- src/App.js -->
<g id="node2" class="node">
<title>src/App.js</title>
<g id="a_node2"><a xlink:href="src/App.js" xlink:title="App.js">
<path fill="#ffffcc" stroke="black" d="M135.35,-40.5C135.35,-40.5 92.69,-40.5 92.69,-40.5 89.85,-40.5 87.02,-37.67 87.02,-34.83 87.02,-34.83 87.02,-29.17 87.02,-29.17 87.02,-26.33 89.85,-23.5 92.69,-23.5 92.69,-23.5 135.35,-23.5 135.35,-23.5 138.19,-23.5 141.02,-26.33 141.02,-29.17 141.02,-29.17 141.02,-34.83 141.02,-34.83 141.02,-37.67 138.19,-40.5 135.35,-40.5"/>
<text text-anchor="middle" x="114.02" y="-29.3" font-family="Helvetica,sans-Serif" font-size="9.00">App.js</text>
</a>
</g>
</g>
<!-- src/App.js&#45;&gt;src/App.css -->
<g id="edge1" class="edge">
<title>src/App.js&#45;&gt;src/App.css</title>
<path fill="none" stroke="#000000" stroke-width="2" stroke-opacity="0.200000" d="M141.24,-24.34C143.85,-23.8 146.48,-23.33 149.02,-23 179.87,-18.99 188.29,-18.15 219.02,-23 220.58,-23.25 222.16,-23.55 223.74,-23.9"/>
<polygon fill="#000000" fill-opacity="0.200000" stroke="#000000" stroke-width="2" stroke-opacity="0.200000" points="223.51,-26.01 229.84,-25.44 224.54,-21.94 223.51,-26.01"/>
</g>
<!-- src/components/Ideas.js -->
<g id="node3" class="node">
<title>src/components/Ideas.js</title>
<g id="a_node3"><a xlink:href="src/components/Ideas.js" xlink:title="Ideas.js">
<path fill="#ffffcc" stroke="black" d="M205.35,-51.5C205.35,-51.5 162.69,-51.5 162.69,-51.5 159.85,-51.5 157.02,-48.67 157.02,-45.83 157.02,-45.83 157.02,-40.17 157.02,-40.17 157.02,-37.33 159.85,-34.5 162.69,-34.5 162.69,-34.5 205.35,-34.5 205.35,-34.5 208.19,-34.5 211.02,-37.33 211.02,-40.17 211.02,-40.17 211.02,-45.83 211.02,-45.83 211.02,-48.67 208.19,-51.5 205.35,-51.5"/>
<text text-anchor="middle" x="184.02" y="-40.3" font-family="Helvetica,sans-Serif" font-size="9.00">Ideas.js</text>
</a>
</g>
</g>
<!-- src/App.js&#45;&gt;src/components/Ideas.js -->
<g id="edge2" class="edge">
<title>src/App.js&#45;&gt;src/components/Ideas.js</title>
<path fill="none" stroke="#000000" stroke-width="2" stroke-opacity="0.200000" d="M141.12,-36.22C144.14,-36.71 147.25,-37.21 150.35,-37.72"/>
<polygon fill="#000000" fill-opacity="0.200000" stroke="#000000" stroke-width="2" stroke-opacity="0.200000" points="150.4,-39.85 156.66,-38.74 151.07,-35.7 150.4,-39.85"/>
</g>
<!-- src/components/Ideas.js&#45;&gt;src/App.css -->
<g id="edge4" class="edge">
<title>src/components/Ideas.js&#45;&gt;src/App.css</title>
<path fill="none" stroke="#000000" stroke-width="2" stroke-opacity="0.200000" d="M211.12,-39.55C214.14,-39.15 217.25,-38.73 220.35,-38.32"/>
<polygon fill="#000000" fill-opacity="0.200000" stroke="#000000" stroke-width="2" stroke-opacity="0.200000" points="220.98,-40.36 226.66,-37.49 220.43,-36.19 220.98,-40.36"/>
</g>
<!-- src/App.test.js -->
<g id="node4" class="node">
<title>src/App.test.js</title>
<g id="a_node4"><a xlink:href="src/App.test.js" xlink:title="App.test.js">
<path fill="#ffffcc" stroke="black" d="M68.36,-40.5C68.36,-40.5 21.66,-40.5 21.66,-40.5 18.82,-40.5 15.99,-37.67 15.99,-34.83 15.99,-34.83 15.99,-29.17 15.99,-29.17 15.99,-26.33 18.82,-23.5 21.66,-23.5 21.66,-23.5 68.36,-23.5 68.36,-23.5 71.2,-23.5 74.03,-26.33 74.03,-29.17 74.03,-29.17 74.03,-34.83 74.03,-34.83 74.03,-37.67 71.2,-40.5 68.36,-40.5"/>
<text text-anchor="middle" x="45.01" y="-29.3" font-family="Helvetica,sans-Serif" font-size="9.00">App.test.js</text>
</a>
</g>
</g>
<!-- src/App.test.js&#45;&gt;src/App.js -->
<g id="edge3" class="edge">
<title>src/App.test.js&#45;&gt;src/App.js</title>
<path fill="none" stroke="#000000" stroke-width="2" stroke-opacity="0.200000" d="M74.04,-32C76.12,-32 78.23,-32 80.33,-32"/>
<polygon fill="#000000" fill-opacity="0.200000" stroke="#000000" stroke-width="2" stroke-opacity="0.200000" points="80.6,-34.1 86.6,-32 80.6,-29.9 80.6,-34.1"/>
</g>
<!-- src/index.css -->
<g id="node5" class="node">
<title>src/index.css</title>
<g id="a_node5"><a xlink:href="src/index.css" xlink:title="index.css">
<path fill="#ffffcc" stroke="black" d="M135.35,-69.5C135.35,-69.5 92.69,-69.5 92.69,-69.5 89.85,-69.5 87.02,-66.67 87.02,-63.83 87.02,-63.83 87.02,-58.17 87.02,-58.17 87.02,-55.33 89.85,-52.5 92.69,-52.5 92.69,-52.5 135.35,-52.5 135.35,-52.5 138.19,-52.5 141.02,-55.33 141.02,-58.17 141.02,-58.17 141.02,-63.83 141.02,-63.83 141.02,-66.67 138.19,-69.5 135.35,-69.5"/>
<text text-anchor="middle" x="114.02" y="-58.3" font-family="Helvetica,sans-Serif" font-size="9.00">index.css</text>
</a>
</g>
</g>
<!-- src/index.js -->
<g id="node6" class="node">
<title>src/index.js</title>
<g id="a_node6"><a xlink:href="src/index.js" xlink:title="index.js">
<path fill="#ffffcc" stroke="black" d="M66.34,-69.5C66.34,-69.5 23.68,-69.5 23.68,-69.5 20.84,-69.5 18.01,-66.67 18.01,-63.83 18.01,-63.83 18.01,-58.17 18.01,-58.17 18.01,-55.33 20.84,-52.5 23.68,-52.5 23.68,-52.5 66.34,-52.5 66.34,-52.5 69.18,-52.5 72.01,-55.33 72.01,-58.17 72.01,-58.17 72.01,-63.83 72.01,-63.83 72.01,-66.67 69.18,-69.5 66.34,-69.5"/>
<text text-anchor="middle" x="45.01" y="-58.3" font-family="Helvetica,sans-Serif" font-size="9.00">index.js</text>
</a>
</g>
</g>
<!-- src/index.js&#45;&gt;src/App.js -->
<g id="edge5" class="edge">
<title>src/index.js&#45;&gt;src/App.js</title>
<path fill="none" stroke="#000000" stroke-width="2" stroke-opacity="0.200000" d="M65.75,-52.46C72.51,-49.53 80.17,-46.22 87.33,-43.12"/>
<polygon fill="#000000" fill-opacity="0.200000" stroke="#000000" stroke-width="2" stroke-opacity="0.200000" points="88.51,-44.89 93.19,-40.58 86.85,-41.04 88.51,-44.89"/>
</g>
<!-- src/index.js&#45;&gt;src/index.css -->
<g id="edge6" class="edge">
<title>src/index.js&#45;&gt;src/index.css</title>
<path fill="none" stroke="#000000" stroke-width="2" stroke-opacity="0.200000" d="M72.11,-61C74.84,-61 77.64,-61 80.43,-61"/>
<polygon fill="#000000" fill-opacity="0.200000" stroke="#000000" stroke-width="2" stroke-opacity="0.200000" points="80.88,-63.1 86.88,-61 80.88,-58.9 80.88,-63.1"/>
</g>
</g>
</svg>
