<?xml version="1.0" encoding="UTF-8" standalone="no"?>
<!DOCTYPE svg PUBLIC "-//W3C//DTD SVG 1.1//EN"
 "http://www.w3.org/Graphics/SVG/1.1/DTD/svg11.dtd">
<!-- Generated by graphviz version 2.43.0 (0)
 -->
<!-- Title: dependency&#45;cruiser output Pages: 1 -->
<svg width="270pt" height="133pt"
 viewBox="0.00 0.00 269.88 133.00" xmlns="http://www.w3.org/2000/svg" xmlns:xlink="http://www.w3.org/1999/xlink">
<g id="graph0" class="graph" transform="scale(1 1) rotate(0) translate(4 129)">
<title>dependency&#45;cruiser output</title>
<polygon fill="white" stroke="transparent" points="-4,4 -4,-129 265.88,-129 265.88,4 -4,4"/>
<g id="clust1" class="cluster">
<title>cluster_src</title>
<path fill="#ffffff" stroke="black" stroke-width="2" d="M20,-8C20,-8 241.88,-8 241.88,-8 247.88,-8 253.88,-14 253.88,-20 253.88,-20 253.88,-105 253.88,-105 253.88,-111 247.88,-117 241.88,-117 241.88,-117 20,-117 20,-117 14,-117 8,-111 8,-105 8,-105 8,-20 8,-20 8,-14 14,-8 20,-8"/>
<text text-anchor="middle" x="130.94" y="-105.8" font-family="Helvetica,sans-Serif" font-weight="bold" font-size="9.00">src</text>
</g>
<!-- src/App.css -->
<g id="node1" class="node">
<title>src/App.css</title>
<g id="a_node1"><a xlink:href="src/App.css" xlink:title="App.css">
<path fill="#ffffcc" stroke="black" d="M240.21,-33.5C240.21,-33.5 197.55,-33.5 197.55,-33.5 194.71,-33.5 191.88,-30.67 191.88,-27.83 191.88,-27.83 191.88,-22.17 191.88,-22.17 191.88,-19.33 194.71,-16.5 197.55,-16.5 197.55,-16.5 240.21,-16.5 240.21,-16.5 243.05,-16.5 245.88,-19.33 245.88,-22.17 245.88,-22.17 245.88,-27.83 245.88,-27.83 245.88,-30.67 243.05,-33.5 240.21,-33.5"/>
<text text-anchor="middle" x="218.88" y="-22.3" font-family="Helvetica,sans-Serif" font-size="9.00">App.css</text>
</a>
</g>
</g>
<!-- src/App.js -->
<g id="node2" class="node">
<title>src/App.js</title>
<g id="a_node2"><a xlink:href="src/App.js" xlink:title="App.js">
<path fill="#ffffcc" stroke="black" d="M159.28,-33.5C159.28,-33.5 116.62,-33.5 116.62,-33.5 113.78,-33.5 110.95,-30.67 110.95,-27.83 110.95,-27.83 110.95,-22.17 110.95,-22.17 110.95,-19.33 113.78,-16.5 116.62,-16.5 116.62,-16.5 159.28,-16.5 159.28,-16.5 162.12,-16.5 164.95,-19.33 164.95,-22.17 164.95,-22.17 164.95,-27.83 164.95,-27.83 164.95,-30.67 162.12,-33.5 159.28,-33.5"/>
<text text-anchor="middle" x="137.95" y="-22.3" font-family="Helvetica,sans-Serif" font-size="9.00">App.js</text>
</a>
</g>
</g>
<!-- src/App.js&#45;&gt;src/App.css -->
<g id="edge1" class="edge">
<title>src/App.js&#45;&gt;src/App.css</title>
<path fill="none" stroke="#000000" stroke-width="2" stroke-opacity="0.200000" d="M165.23,-25C171.76,-25 178.82,-25 185.6,-25"/>
<polygon fill="#000000" fill-opacity="0.200000" stroke="#000000" stroke-width="2" stroke-opacity="0.200000" points="185.71,-27.1 191.71,-25 185.71,-22.9 185.71,-27.1"/>
</g>
<!-- src/App.test.js -->
<g id="node3" class="node">
<title>src/App.test.js</title>
<g id="a_node3"><a xlink:href="src/App.test.js" xlink:title="App.test.js">
<path fill="#ffffcc" stroke="black" d="M73.37,-62.5C73.37,-62.5 26.66,-62.5 26.66,-62.5 23.82,-62.5 20.99,-59.67 20.99,-56.83 20.99,-56.83 20.99,-51.17 20.99,-51.17 20.99,-48.33 23.82,-45.5 26.66,-45.5 26.66,-45.5 73.37,-45.5 73.37,-45.5 76.2,-45.5 79.03,-48.33 79.03,-51.17 79.03,-51.17 79.03,-56.83 79.03,-56.83 79.03,-59.67 76.2,-62.5 73.37,-62.5"/>
<text text-anchor="middle" x="50.01" y="-51.3" font-family="Helvetica,sans-Serif" font-size="9.00">App.test.js</text>
</a>
</g>
</g>
<!-- src/App.test.js&#45;&gt;src/App.js -->
<g id="edge2" class="edge">
<title>src/App.test.js&#45;&gt;src/App.js</title>
<path fill="none" stroke="#000000" stroke-width="2" stroke-opacity="0.200000" d="M76.33,-45.46C85.52,-42.36 96,-38.82 105.64,-35.57"/>
<polygon fill="#000000" fill-opacity="0.200000" stroke="#000000" stroke-width="2" stroke-opacity="0.200000" points="106.5,-37.49 111.51,-33.58 105.16,-33.51 106.5,-37.49"/>
</g>
<!-- src/index.css -->
<g id="node4" class="node">
<title>src/index.css</title>
<g id="a_node4"><a xlink:href="src/index.css" xlink:title="index.css">
<path fill="#ffffcc" stroke="black" d="M159.28,-62.5C159.28,-62.5 116.62,-62.5 116.62,-62.5 113.78,-62.5 110.95,-59.67 110.95,-56.83 110.95,-56.83 110.95,-51.17 110.95,-51.17 110.95,-48.33 113.78,-45.5 116.62,-45.5 116.62,-45.5 159.28,-45.5 159.28,-45.5 162.12,-45.5 164.95,-48.33 164.95,-51.17 164.95,-51.17 164.95,-56.83 164.95,-56.83 164.95,-59.67 162.12,-62.5 159.28,-62.5"/>
<text text-anchor="middle" x="137.95" y="-51.3" font-family="Helvetica,sans-Serif" font-size="9.00">index.css</text>
</a>
</g>
</g>
<!-- src/index.js -->
<g id="node5" class="node">
<title>src/index.js</title>
<g id="a_node5"><a xlink:href="src/index.js" xlink:title="index.js">
<path fill="#ffffcc" stroke="black" d="M71.34,-91.5C71.34,-91.5 28.68,-91.5 28.68,-91.5 25.84,-91.5 23.01,-88.67 23.01,-85.83 23.01,-85.83 23.01,-80.17 23.01,-80.17 23.01,-77.33 25.84,-74.5 28.68,-74.5 28.68,-74.5 71.34,-74.5 71.34,-74.5 74.18,-74.5 77.01,-77.33 77.01,-80.17 77.01,-80.17 77.01,-85.83 77.01,-85.83 77.01,-88.67 74.18,-91.5 71.34,-91.5"/>
<text text-anchor="middle" x="50.01" y="-80.3" font-family="Helvetica,sans-Serif" font-size="9.00">index.js</text>
</a>
</g>
</g>
<!-- src/index.js&#45;&gt;src/App.js -->
<g id="edge3" class="edge">
<title>src/index.js&#45;&gt;src/App.js</title>
<path fill="none" stroke="#000000" stroke-width="2" stroke-opacity="0.200000" d="M75.42,-74.42C78.56,-72.62 81.54,-70.5 84.02,-68 93.98,-57.99 86.62,-48.56 97.02,-39 99.46,-36.76 102.27,-34.88 105.25,-33.3"/>
<polygon fill="#000000" fill-opacity="0.200000" stroke="#000000" stroke-width="2" stroke-opacity="0.200000" points="106.19,-35.18 110.76,-30.75 104.43,-31.36 106.19,-35.18"/>
</g>
<!-- src/index.js&#45;&gt;src/index.css -->
<g id="edge4" class="edge">
<title>src/index.js&#45;&gt;src/index.css</title>
<path fill="none" stroke="#000000" stroke-width="2" stroke-opacity="0.200000" d="M76.33,-74.46C85.52,-71.36 96,-67.82 105.64,-64.57"/>
<polygon fill="#000000" fill-opacity="0.200000" stroke="#000000" stroke-width="2" stroke-opacity="0.200000" points="106.5,-66.49 111.51,-62.58 105.16,-62.51 106.5,-66.49"/>
</g>
<!-- src/serviceWorker.js -->
<g id="node6" class="node">
<title>src/serviceWorker.js</title>
<g id="a_node6"><a xlink:href="src/serviceWorker.js" xlink:title="serviceWorker.js">
<path fill="#ffffcc" stroke="black" d="M173.14,-91.5C173.14,-91.5 102.76,-91.5 102.76,-91.5 99.93,-91.5 97.09,-88.67 97.09,-85.83 97.09,-85.83 97.09,-80.17 97.09,-80.17 97.09,-77.33 99.93,-74.5 102.76,-74.5 102.76,-74.5 173.14,-74.5 173.14,-74.5 175.97,-74.5 178.81,-77.33 178.81,-80.17 178.81,-80.17 178.81,-85.83 178.81,-85.83 178.81,-88.67 175.97,-91.5 173.14,-91.5"/>
<text text-anchor="middle" x="137.95" y="-80.3" font-family="Helvetica,sans-Serif" font-size="9.00">serviceWorker.js</text>
</a>
</g>
</g>
<!-- src/index.js&#45;&gt;src/serviceWorker.js -->
<g id="edge5" class="edge">
<title>src/index.js&#45;&gt;src/serviceWorker.js</title>
<path fill="none" stroke="#000000" stroke-width="2" stroke-opacity="0.200000" d="M77.26,-83C81.54,-83 86.08,-83 90.66,-83"/>
<polygon fill="#000000" fill-opacity="0.200000" stroke="#000000" stroke-width="2" stroke-opacity="0.200000" points="90.93,-85.1 96.93,-83 90.93,-80.9 90.93,-85.1"/>
</g>
<!-- src/setupTests.js -->
<g id="node7" class="node">
<title>src/setupTests.js</title>
<g id="a_node7"><a xlink:href="src/setupTests.js" xlink:title="setupTests.js">
<path fill="#ccffcc" stroke="black" d="M78.37,-33.5C78.37,-33.5 21.66,-33.5 21.66,-33.5 18.82,-33.5 15.99,-30.67 15.99,-27.83 15.99,-27.83 15.99,-22.17 15.99,-22.17 15.99,-19.33 18.82,-16.5 21.66,-16.5 21.66,-16.5 78.37,-16.5 78.37,-16.5 81.2,-16.5 84.03,-19.33 84.03,-22.17 84.03,-22.17 84.03,-27.83 84.03,-27.83 84.03,-30.67 81.2,-33.5 78.37,-33.5"/>
<text text-anchor="middle" x="50.01" y="-22.3" font-family="Helvetica,sans-Serif" font-size="9.00">setupTests.js</text>
</a>
</g>
</g>
</g>
</svg>
