<?xml version="1.0" encoding="UTF-8" standalone="no"?>
<!DOCTYPE svg PUBLIC "-//W3C//DTD SVG 1.1//EN"
 "http://www.w3.org/Graphics/SVG/1.1/DTD/svg11.dtd">
<!-- Generated by graphviz version 2.43.0 (0)
 -->
<!-- Title: dependency&#45;cruiser output Pages: 1 -->
<svg width="455pt" height="255pt"
 viewBox="0.00 0.00 455.10 255.00" xmlns="http://www.w3.org/2000/svg" xmlns:xlink="http://www.w3.org/1999/xlink">
<g id="graph0" class="graph" transform="scale(1 1) rotate(0) translate(4 251)">
<title>dependency&#45;cruiser output</title>
<polygon fill="white" stroke="transparent" points="-4,4 -4,-251 451.1,-251 451.1,4 -4,4"/>
<g id="clust1" class="cluster">
<title>cluster_src</title>
<path fill="#ffffff" stroke="black" stroke-width="2" d="M20,-8C20,-8 427.1,-8 427.1,-8 433.1,-8 439.1,-14 439.1,-20 439.1,-20 439.1,-227 439.1,-227 439.1,-233 433.1,-239 427.1,-239 427.1,-239 20,-239 20,-239 14,-239 8,-233 8,-227 8,-227 8,-20 8,-20 8,-14 14,-8 20,-8"/>
<text text-anchor="middle" x="223.55" y="-227.8" font-family="Helvetica,sans-Serif" font-weight="bold" font-size="9.00">src</text>
</g>
<g id="clust2" class="cluster">
<title>cluster_src/components</title>
<path fill="#ffffff" stroke="black" stroke-width="2" d="M161.02,-105C161.02,-105 357.1,-105 357.1,-105 363.1,-105 369.1,-111 369.1,-117 369.1,-117 369.1,-202 369.1,-202 369.1,-208 363.1,-214 357.1,-214 357.1,-214 161.02,-214 161.02,-214 155.02,-214 149.02,-208 149.02,-202 149.02,-202 149.02,-117 149.02,-117 149.02,-111 155.02,-105 161.02,-105"/>
<text text-anchor="middle" x="259.06" y="-202.8" font-family="Helvetica,sans-Serif" font-weight="bold" font-size="9.00">components</text>
</g>
<g id="clust3" class="cluster">
<title>cluster_src/helpers</title>
<path fill="#ffffff" stroke="black" stroke-width="2" d="M263.55,-40C263.55,-40 344.6,-40 344.6,-40 350.6,-40 356.6,-46 356.6,-52 356.6,-52 356.6,-79 356.6,-79 356.6,-85 350.6,-91 344.6,-91 344.6,-91 263.55,-91 263.55,-91 257.55,-91 251.55,-85 251.55,-79 251.55,-79 251.55,-52 251.55,-52 251.55,-46 257.55,-40 263.55,-40"/>
<text text-anchor="middle" x="304.08" y="-79.8" font-family="Helvetica,sans-Serif" font-weight="bold" font-size="9.00">helpers</text>
</g>
<!-- src/App.css -->
<g id="node1" class="node">
<title>src/App.css</title>
<g id="a_node1"><a xlink:href="src/App.css" xlink:title="App.css">
<path fill="#ffffcc" stroke="black" d="M425.44,-119.5C425.44,-119.5 382.77,-119.5 382.77,-119.5 379.94,-119.5 377.1,-116.67 377.1,-113.83 377.1,-113.83 377.1,-108.17 377.1,-108.17 377.1,-105.33 379.94,-102.5 382.77,-102.5 382.77,-102.5 425.44,-102.5 425.44,-102.5 428.27,-102.5 431.1,-105.33 431.1,-108.17 431.1,-108.17 431.1,-113.83 431.1,-113.83 431.1,-116.67 428.27,-119.5 425.44,-119.5"/>
<text text-anchor="middle" x="404.1" y="-108.3" font-family="Helvetica,sans-Serif" font-size="9.00">App.css</text>
</a>
</g>
</g>
<!-- src/App.js -->
<g id="node2" class="node">
<title>src/App.js</title>
<g id="a_node2"><a xlink:href="src/App.js" xlink:title="App.js">
<path fill="#ffffcc" stroke="black" d="M135.35,-130.5C135.35,-130.5 92.69,-130.5 92.69,-130.5 89.85,-130.5 87.02,-127.67 87.02,-124.83 87.02,-124.83 87.02,-119.17 87.02,-119.17 87.02,-116.33 89.85,-113.5 92.69,-113.5 92.69,-113.5 135.35,-113.5 135.35,-113.5 138.19,-113.5 141.02,-116.33 141.02,-119.17 141.02,-119.17 141.02,-124.83 141.02,-124.83 141.02,-127.67 138.19,-130.5 135.35,-130.5"/>
<text text-anchor="middle" x="114.02" y="-119.3" font-family="Helvetica,sans-Serif" font-size="9.00">App.js</text>
</a>
</g>
</g>
<!-- src/App.js&#45;&gt;src/App.css -->
<g id="edge1" class="edge">
<title>src/App.js&#45;&gt;src/App.css</title>
<path fill="none" stroke="#000000" stroke-width="2" stroke-opacity="0.200000" d="M122.54,-113.31C141.12,-92.58 191.72,-40.59 247.05,-22 298.47,-4.72 324.42,8.76 369.1,-22 393.44,-38.76 400.37,-75.47 402.33,-96.13"/>
<polygon fill="#000000" fill-opacity="0.200000" stroke="#000000" stroke-width="2" stroke-opacity="0.200000" points="400.25,-96.41 402.81,-102.22 404.44,-96.08 400.25,-96.41"/>
</g>
<!-- src/components/ControlPanel.js -->
<g id="node3" class="node">
<title>src/components/ControlPanel.js</title>
<g id="a_node3"><a xlink:href="src/components/ControlPanel.js" xlink:title="ControlPanel.js">
<path fill="#ffffcc" stroke="black" d="M228.4,-130.5C228.4,-130.5 162.67,-130.5 162.67,-130.5 159.84,-130.5 157,-127.67 157,-124.83 157,-124.83 157,-119.17 157,-119.17 157,-116.33 159.84,-113.5 162.67,-113.5 162.67,-113.5 228.4,-113.5 228.4,-113.5 231.23,-113.5 234.07,-116.33 234.07,-119.17 234.07,-119.17 234.07,-124.83 234.07,-124.83 234.07,-127.67 231.23,-130.5 228.4,-130.5"/>
<text text-anchor="middle" x="195.54" y="-119.3" font-family="Helvetica,sans-Serif" font-size="9.00">ControlPanel.js</text>
</a>
</g>
</g>
<!-- src/App.js&#45;&gt;src/components/ControlPanel.js -->
<g id="edge2" class="edge">
<title>src/App.js&#45;&gt;src/components/ControlPanel.js</title>
<path fill="none" stroke="#000000" stroke-width="2" stroke-opacity="0.200000" d="M141.06,-122C144.23,-122 147.53,-122 150.87,-122"/>
<polygon fill="#000000" fill-opacity="0.200000" stroke="#000000" stroke-width="2" stroke-opacity="0.200000" points="150.9,-124.1 156.9,-122 150.9,-119.9 150.9,-124.1"/>
</g>
<!-- src/components/Ideas.js -->
<g id="node4" class="node">
<title>src/components/Ideas.js</title>
<g id="a_node4"><a xlink:href="src/components/Ideas.js" xlink:title="Ideas.js">
<path fill="#ffffcc" stroke="black" d="M216.87,-159.5C216.87,-159.5 174.2,-159.5 174.2,-159.5 171.37,-159.5 168.54,-156.67 168.54,-153.83 168.54,-153.83 168.54,-148.17 168.54,-148.17 168.54,-145.33 171.37,-142.5 174.2,-142.5 174.2,-142.5 216.87,-142.5 216.87,-142.5 219.7,-142.5 222.54,-145.33 222.54,-148.17 222.54,-148.17 222.54,-153.83 222.54,-153.83 222.54,-156.67 219.7,-159.5 216.87,-159.5"/>
<text text-anchor="middle" x="195.54" y="-148.3" font-family="Helvetica,sans-Serif" font-size="9.00">Ideas.js</text>
</a>
</g>
</g>
<!-- src/App.js&#45;&gt;src/components/Ideas.js -->
<g id="edge3" class="edge">
<title>src/App.js&#45;&gt;src/components/Ideas.js</title>
<path fill="none" stroke="#000000" stroke-width="2" stroke-opacity="0.200000" d="M133.56,-130.65C138.54,-132.84 143.94,-135.11 149.02,-137 153.38,-138.62 158.02,-140.21 162.61,-141.7"/>
<polygon fill="#000000" fill-opacity="0.200000" stroke="#000000" stroke-width="2" stroke-opacity="0.200000" points="162.01,-143.71 168.36,-143.52 163.28,-139.71 162.01,-143.71"/>
</g>
<!-- src/components/ControlPanel.js&#45;&gt;src/App.css -->
<g id="edge6" class="edge">
<title>src/components/ControlPanel.js&#45;&gt;src/App.css</title>
<path fill="none" stroke="#000000" stroke-width="2" stroke-opacity="0.200000" d="M230.46,-113.34C231.76,-112.34 232.97,-111.24 234.05,-110 255.75,-85.2 221.79,-58.16 247.05,-37 267.84,-19.58 346.27,-22.36 369.1,-37 389.46,-50.05 397.79,-78.68 401.08,-96.26"/>
<polygon fill="#000000" fill-opacity="0.200000" stroke="#000000" stroke-width="2" stroke-opacity="0.200000" points="399.01,-96.62 402.08,-102.18 403.15,-95.92 399.01,-96.62"/>
</g>
<!-- src/helpers/expandTextarea.js -->
<g id="node7" class="node">
<title>src/helpers/expandTextarea.js</title>
<g id="a_node7"><a xlink:href="src/helpers/expandTextarea.js" xlink:title="expandTextarea.js">
<path fill="#ffffcc" stroke="black" d="M342.96,-65.5C342.96,-65.5 265.2,-65.5 265.2,-65.5 262.36,-65.5 259.53,-62.67 259.53,-59.83 259.53,-59.83 259.53,-54.17 259.53,-54.17 259.53,-51.33 262.36,-48.5 265.2,-48.5 265.2,-48.5 342.96,-48.5 342.96,-48.5 345.79,-48.5 348.62,-51.33 348.62,-54.17 348.62,-54.17 348.62,-59.83 348.62,-59.83 348.62,-62.67 345.79,-65.5 342.96,-65.5"/>
<text text-anchor="middle" x="304.08" y="-54.3" font-family="Helvetica,sans-Serif" font-size="9.00">expandTextarea.js</text>
</a>
</g>
</g>
<!-- src/components/ControlPanel.js&#45;&gt;src/helpers/expandTextarea.js -->
<g id="edge7" class="edge">
<title>src/components/ControlPanel.js&#45;&gt;src/helpers/expandTextarea.js</title>
<path fill="none" stroke="#000000" stroke-width="2" stroke-opacity="0.200000" d="M229.92,-113.38C231.4,-112.38 232.79,-111.25 234.05,-110 247.3,-96.81 233.28,-82.64 247.05,-70 249.19,-68.04 251.57,-66.35 254.1,-64.91"/>
<polygon fill="#000000" fill-opacity="0.200000" stroke="#000000" stroke-width="2" stroke-opacity="0.200000" points="255.03,-66.79 259.5,-62.27 253.18,-63.02 255.03,-66.79"/>
</g>
<!-- src/components/Preview.js -->
<g id="node8" class="node">
<title>src/components/Preview.js</title>
<g id="a_node8"><a xlink:href="src/components/Preview.js" xlink:title="Preview.js">
<path fill="#ffffcc" stroke="black" d="M326.43,-130.5C326.43,-130.5 281.72,-130.5 281.72,-130.5 278.89,-130.5 276.06,-127.67 276.06,-124.83 276.06,-124.83 276.06,-119.17 276.06,-119.17 276.06,-116.33 278.89,-113.5 281.72,-113.5 281.72,-113.5 326.43,-113.5 326.43,-113.5 329.26,-113.5 332.1,-116.33 332.1,-119.17 332.1,-119.17 332.1,-124.83 332.1,-124.83 332.1,-127.67 329.26,-130.5 326.43,-130.5"/>
<text text-anchor="middle" x="304.08" y="-119.3" font-family="Helvetica,sans-Serif" font-size="9.00">Preview.js</text>
</a>
</g>
</g>
<!-- src/components/ControlPanel.js&#45;&gt;src/components/Preview.js -->
<g id="edge8" class="edge">
<title>src/components/ControlPanel.js&#45;&gt;src/components/Preview.js</title>
<path fill="none" stroke="#000000" stroke-width="2" stroke-opacity="0.200000" d="M234.1,-122C245.72,-122 258.45,-122 269.76,-122"/>
<polygon fill="#000000" fill-opacity="0.200000" stroke="#000000" stroke-width="2" stroke-opacity="0.200000" points="269.89,-124.1 275.89,-122 269.89,-119.9 269.89,-124.1"/>
</g>
<!-- src/components/ShortcutButtonsGroup.js -->
<g id="node9" class="node">
<title>src/components/ShortcutButtonsGroup.js</title>
<g id="a_node9"><a xlink:href="src/components/ShortcutButtonsGroup.js" xlink:title="ShortcutButtonsGroup.js">
<path fill="#ffffcc" stroke="black" d="M355.46,-159.5C355.46,-159.5 252.69,-159.5 252.69,-159.5 249.86,-159.5 247.03,-156.67 247.03,-153.83 247.03,-153.83 247.03,-148.17 247.03,-148.17 247.03,-145.33 249.86,-142.5 252.69,-142.5 252.69,-142.5 355.46,-142.5 355.46,-142.5 358.29,-142.5 361.13,-145.33 361.13,-148.17 361.13,-148.17 361.13,-153.83 361.13,-153.83 361.13,-156.67 358.29,-159.5 355.46,-159.5"/>
<text text-anchor="middle" x="304.08" y="-148.3" font-family="Helvetica,sans-Serif" font-size="9.00">ShortcutButtonsGroup.js</text>
</a>
</g>
</g>
<!-- src/components/ControlPanel.js&#45;&gt;src/components/ShortcutButtonsGroup.js -->
<g id="edge9" class="edge">
<title>src/components/ControlPanel.js&#45;&gt;src/components/ShortcutButtonsGroup.js</title>
<path fill="none" stroke="#000000" stroke-width="2" stroke-opacity="0.200000" d="M224.53,-130.55C231.84,-132.72 239.73,-135 247.05,-137 251.92,-138.33 257.03,-139.68 262.12,-140.98"/>
<polygon fill="#000000" fill-opacity="0.200000" stroke="#000000" stroke-width="2" stroke-opacity="0.200000" points="261.72,-143.05 268.05,-142.5 262.75,-138.98 261.72,-143.05"/>
</g>
<!-- src/components/Ideas.js&#45;&gt;src/App.css -->
<g id="edge10" class="edge">
<title>src/components/Ideas.js&#45;&gt;src/App.css</title>
<path fill="none" stroke="#000000" stroke-width="2" stroke-opacity="0.200000" d="M222.71,-144.32C226.84,-142.44 230.81,-140.04 234.05,-137 244.36,-127.34 235.2,-115.68 247.05,-108 266.75,-95.24 331.25,-101.12 370.89,-106.26"/>
<polygon fill="#000000" fill-opacity="0.200000" stroke="#000000" stroke-width="2" stroke-opacity="0.200000" points="370.81,-108.37 377.03,-107.08 371.36,-104.2 370.81,-108.37"/>
</g>
<!-- src/components/CollapsingButton.js -->
<g id="node6" class="node">
<title>src/components/CollapsingButton.js</title>
<g id="a_node6"><a xlink:href="src/components/CollapsingButton.js" xlink:title="CollapsingButton.js">
<path fill="#ffffcc" stroke="black" d="M344.96,-188.5C344.96,-188.5 263.2,-188.5 263.2,-188.5 260.37,-188.5 257.53,-185.67 257.53,-182.83 257.53,-182.83 257.53,-177.17 257.53,-177.17 257.53,-174.33 260.37,-171.5 263.2,-171.5 263.2,-171.5 344.96,-171.5 344.96,-171.5 347.79,-171.5 350.62,-174.33 350.62,-177.17 350.62,-177.17 350.62,-182.83 350.62,-182.83 350.62,-185.67 347.79,-188.5 344.96,-188.5"/>
<text text-anchor="middle" x="304.08" y="-177.3" font-family="Helvetica,sans-Serif" font-size="9.00">CollapsingButton.js</text>
</a>
</g>
</g>
<!-- src/components/Ideas.js&#45;&gt;src/components/CollapsingButton.js -->
<g id="edge12" class="edge">
<title>src/components/Ideas.js&#45;&gt;src/components/CollapsingButton.js</title>
<path fill="none" stroke="#000000" stroke-width="2" stroke-opacity="0.200000" d="M222.69,-159C230.51,-161.33 239.11,-163.83 247.05,-166 251.92,-167.33 257.03,-168.68 262.12,-169.98"/>
<polygon fill="#000000" fill-opacity="0.200000" stroke="#000000" stroke-width="2" stroke-opacity="0.200000" points="261.72,-172.05 268.05,-171.5 262.75,-167.98 261.72,-172.05"/>
</g>
<!-- src/components/Ideas.js&#45;&gt;src/helpers/expandTextarea.js -->
<g id="edge11" class="edge">
<title>src/components/Ideas.js&#45;&gt;src/helpers/expandTextarea.js</title>
<path fill="none" stroke="#000000" stroke-width="2" stroke-opacity="0.200000" d="M222.57,-145.28C226.92,-143.29 231,-140.61 234.05,-137 253.65,-113.85 226,-91.84 247.05,-70 249.11,-67.87 251.44,-66.05 253.96,-64.51"/>
<polygon fill="#000000" fill-opacity="0.200000" stroke="#000000" stroke-width="2" stroke-opacity="0.200000" points="254.99,-66.34 259.36,-61.72 253.07,-62.61 254.99,-66.34"/>
</g>
<!-- src/App.test.js -->
<g id="node5" class="node">
<title>src/App.test.js</title>
<g id="a_node5"><a xlink:href="src/App.test.js" xlink:title="App.test.js">
<path fill="#ffffcc" stroke="black" d="M68.36,-130.5C68.36,-130.5 21.66,-130.5 21.66,-130.5 18.82,-130.5 15.99,-127.67 15.99,-124.83 15.99,-124.83 15.99,-119.17 15.99,-119.17 15.99,-116.33 18.82,-113.5 21.66,-113.5 21.66,-113.5 68.36,-113.5 68.36,-113.5 71.2,-113.5 74.03,-116.33 74.03,-119.17 74.03,-119.17 74.03,-124.83 74.03,-124.83 74.03,-127.67 71.2,-130.5 68.36,-130.5"/>
<text text-anchor="middle" x="45.01" y="-119.3" font-family="Helvetica,sans-Serif" font-size="9.00">App.test.js</text>
</a>
</g>
</g>
<!-- src/App.test.js&#45;&gt;src/App.js -->
<g id="edge4" class="edge">
<title>src/App.test.js&#45;&gt;src/App.js</title>
<path fill="none" stroke="#000000" stroke-width="2" stroke-opacity="0.200000" d="M74.04,-122C76.12,-122 78.23,-122 80.33,-122"/>
<polygon fill="#000000" fill-opacity="0.200000" stroke="#000000" stroke-width="2" stroke-opacity="0.200000" points="80.6,-124.1 86.6,-122 80.6,-119.9 80.6,-124.1"/>
</g>
<!-- src/components/CollapsingButton.js&#45;&gt;src/App.css -->
<g id="edge5" class="edge">
<title>src/components/CollapsingButton.js&#45;&gt;src/App.css</title>
<path fill="none" stroke="#000000" stroke-width="2" stroke-opacity="0.200000" d="M350.74,-174.78C357.27,-172.71 363.62,-169.88 369.1,-166 383.27,-155.96 392.73,-137.98 398,-125.31"/>
<polygon fill="#000000" fill-opacity="0.200000" stroke="#000000" stroke-width="2" stroke-opacity="0.200000" points="400.01,-125.93 400.25,-119.58 396.1,-124.39 400.01,-125.93"/>
</g>
<!-- src/components/Preview.js&#45;&gt;src/App.css -->
<g id="edge13" class="edge">
<title>src/components/Preview.js&#45;&gt;src/App.css</title>
<path fill="none" stroke="#000000" stroke-width="2" stroke-opacity="0.200000" d="M332.12,-118.97C344.1,-117.62 358.29,-116.03 370.82,-114.62"/>
<polygon fill="#000000" fill-opacity="0.200000" stroke="#000000" stroke-width="2" stroke-opacity="0.200000" points="371.09,-116.71 376.82,-113.95 370.63,-112.53 371.09,-116.71"/>
</g>
<!-- src/components/ShortcutButtonsGroup.js&#45;&gt;src/App.css -->
<g id="edge14" class="edge">
<title>src/components/ShortcutButtonsGroup.js&#45;&gt;src/App.css</title>
<path fill="none" stroke="#000000" stroke-width="2" stroke-opacity="0.200000" d="M354.73,-142.43C359.69,-140.9 364.56,-139.11 369.1,-137 376.37,-133.63 383.55,-128.49 389.42,-123.66"/>
<polygon fill="#000000" fill-opacity="0.200000" stroke="#000000" stroke-width="2" stroke-opacity="0.200000" points="390.82,-125.23 394.02,-119.73 388.1,-122.03 390.82,-125.23"/>
</g>
<!-- src/index.css -->
<g id="node10" class="node">
<title>src/index.css</title>
<g id="a_node10"><a xlink:href="src/index.css" xlink:title="index.css">
<path fill="#ffffcc" stroke="black" d="M135.35,-159.5C135.35,-159.5 92.69,-159.5 92.69,-159.5 89.85,-159.5 87.02,-156.67 87.02,-153.83 87.02,-153.83 87.02,-148.17 87.02,-148.17 87.02,-145.33 89.85,-142.5 92.69,-142.5 92.69,-142.5 135.35,-142.5 135.35,-142.5 138.19,-142.5 141.02,-145.33 141.02,-148.17 141.02,-148.17 141.02,-153.83 141.02,-153.83 141.02,-156.67 138.19,-159.5 135.35,-159.5"/>
<text text-anchor="middle" x="114.02" y="-148.3" font-family="Helvetica,sans-Serif" font-size="9.00">index.css</text>
</a>
</g>
</g>
<!-- src/index.js -->
<g id="node11" class="node">
<title>src/index.js</title>
<g id="a_node11"><a xlink:href="src/index.js" xlink:title="index.js">
<path fill="#ffffcc" stroke="black" d="M66.34,-159.5C66.34,-159.5 23.68,-159.5 23.68,-159.5 20.84,-159.5 18.01,-156.67 18.01,-153.83 18.01,-153.83 18.01,-148.17 18.01,-148.17 18.01,-145.33 20.84,-142.5 23.68,-142.5 23.68,-142.5 66.34,-142.5 66.34,-142.5 69.18,-142.5 72.01,-145.33 72.01,-148.17 72.01,-148.17 72.01,-153.83 72.01,-153.83 72.01,-156.67 69.18,-159.5 66.34,-159.5"/>
<text text-anchor="middle" x="45.01" y="-148.3" font-family="Helvetica,sans-Serif" font-size="9.00">index.js</text>
</a>
</g>
</g>
<!-- src/index.js&#45;&gt;src/App.js -->
<g id="edge15" class="edge">
<title>src/index.js&#45;&gt;src/App.js</title>
<path fill="none" stroke="#000000" stroke-width="2" stroke-opacity="0.200000" d="M65.75,-142.46C72.51,-139.53 80.17,-136.22 87.33,-133.12"/>
<polygon fill="#000000" fill-opacity="0.200000" stroke="#000000" stroke-width="2" stroke-opacity="0.200000" points="88.51,-134.89 93.19,-130.58 86.85,-131.04 88.51,-134.89"/>
</g>
<!-- src/index.js&#45;&gt;src/index.css -->
<g id="edge16" class="edge">
<title>src/index.js&#45;&gt;src/index.css</title>
<path fill="none" stroke="#000000" stroke-width="2" stroke-opacity="0.200000" d="M72.11,-151C74.84,-151 77.64,-151 80.43,-151"/>
<polygon fill="#000000" fill-opacity="0.200000" stroke="#000000" stroke-width="2" stroke-opacity="0.200000" points="80.88,-153.1 86.88,-151 80.88,-148.9 80.88,-153.1"/>
</g>
</g>
</svg>
