<?xml version="1.0" encoding="UTF-8" standalone="no"?>
<!DOCTYPE svg PUBLIC "-//W3C//DTD SVG 1.1//EN"
 "http://www.w3.org/Graphics/SVG/1.1/DTD/svg11.dtd">
<!-- Generated by graphviz version 2.43.0 (0)
 -->
<!-- Title: dependency&#45;cruiser output Pages: 1 -->
<svg width="455pt" height="200pt"
 viewBox="0.00 0.00 455.10 200.00" xmlns="http://www.w3.org/2000/svg" xmlns:xlink="http://www.w3.org/1999/xlink">
<g id="graph0" class="graph" transform="scale(1 1) rotate(0) translate(4 196)">
<title>dependency&#45;cruiser output</title>
<polygon fill="white" stroke="transparent" points="-4,4 -4,-196 451.1,-196 451.1,4 -4,4"/>
<g id="clust1" class="cluster">
<title>cluster_src</title>
<path fill="#ffffff" stroke="black" stroke-width="2" d="M20,-8C20,-8 427.1,-8 427.1,-8 433.1,-8 439.1,-14 439.1,-20 439.1,-20 439.1,-172 439.1,-172 439.1,-178 433.1,-184 427.1,-184 427.1,-184 20,-184 20,-184 14,-184 8,-178 8,-172 8,-172 8,-20 8,-20 8,-14 14,-8 20,-8"/>
<text text-anchor="middle" x="223.55" y="-172.8" font-family="Helvetica,sans-Serif" font-weight="bold" font-size="9.00">src</text>
</g>
<g id="clust2" class="cluster">
<title>cluster_src/components</title>
<path fill="#ffffff" stroke="black" stroke-width="2" d="M161.02,-50C161.02,-50 357.1,-50 357.1,-50 363.1,-50 369.1,-56 369.1,-62 369.1,-62 369.1,-147 369.1,-147 369.1,-153 363.1,-159 357.1,-159 357.1,-159 161.02,-159 161.02,-159 155.02,-159 149.02,-153 149.02,-147 149.02,-147 149.02,-62 149.02,-62 149.02,-56 155.02,-50 161.02,-50"/>
<text text-anchor="middle" x="259.06" y="-147.8" font-family="Helvetica,sans-Serif" font-weight="bold" font-size="9.00">components</text>
</g>
<!-- src/App.css -->
<g id="node1" class="node">
<title>src/App.css</title>
<g id="a_node1"><a xlink:href="src/App.css" xlink:title="App.css">
<path fill="#ffffcc" stroke="black" d="M425.44,-64.5C425.44,-64.5 382.77,-64.5 382.77,-64.5 379.94,-64.5 377.1,-61.67 377.1,-58.83 377.1,-58.83 377.1,-53.17 377.1,-53.17 377.1,-50.33 379.94,-47.5 382.77,-47.5 382.77,-47.5 425.44,-47.5 425.44,-47.5 428.27,-47.5 431.1,-50.33 431.1,-53.17 431.1,-53.17 431.1,-58.83 431.1,-58.83 431.1,-61.67 428.27,-64.5 425.44,-64.5"/>
<text text-anchor="middle" x="404.1" y="-53.3" font-family="Helvetica,sans-Serif" font-size="9.00">App.css</text>
</a>
</g>
</g>
<!-- src/App.js -->
<g id="node2" class="node">
<title>src/App.js</title>
<g id="a_node2"><a xlink:href="src/App.js" xlink:title="App.js">
<path fill="#ffffcc" stroke="black" d="M135.35,-75.5C135.35,-75.5 92.69,-75.5 92.69,-75.5 89.85,-75.5 87.02,-72.67 87.02,-69.83 87.02,-69.83 87.02,-64.17 87.02,-64.17 87.02,-61.33 89.85,-58.5 92.69,-58.5 92.69,-58.5 135.35,-58.5 135.35,-58.5 138.19,-58.5 141.02,-61.33 141.02,-64.17 141.02,-64.17 141.02,-69.83 141.02,-69.83 141.02,-72.67 138.19,-75.5 135.35,-75.5"/>
<text text-anchor="middle" x="114.02" y="-64.3" font-family="Helvetica,sans-Serif" font-size="9.00">App.js</text>
</a>
</g>
</g>
<!-- src/App.js&#45;&gt;src/App.css -->
<g id="edge1" class="edge">
<title>src/App.js&#45;&gt;src/App.css</title>
<path fill="none" stroke="#000000" stroke-width="2" stroke-opacity="0.200000" d="M127.44,-58.39C133.68,-54.41 141.49,-49.93 149.02,-47 190.54,-30.83 202.74,-30.69 247.05,-26 300.99,-20.29 318.36,-6.82 369.1,-26 378.02,-29.37 386.11,-36.27 392.16,-42.6"/>
<polygon fill="#000000" fill-opacity="0.200000" stroke="#000000" stroke-width="2" stroke-opacity="0.200000" points="390.79,-44.22 396.37,-47.26 393.91,-41.4 390.79,-44.22"/>
</g>
<!-- src/components/ControlPanel.js -->
<g id="node3" class="node">
<title>src/components/ControlPanel.js</title>
<g id="a_node3"><a xlink:href="src/components/ControlPanel.js" xlink:title="ControlPanel.js">
<path fill="#ffffcc" stroke="black" d="M228.4,-104.5C228.4,-104.5 162.67,-104.5 162.67,-104.5 159.84,-104.5 157,-101.67 157,-98.83 157,-98.83 157,-93.17 157,-93.17 157,-90.33 159.84,-87.5 162.67,-87.5 162.67,-87.5 228.4,-87.5 228.4,-87.5 231.23,-87.5 234.07,-90.33 234.07,-93.17 234.07,-93.17 234.07,-98.83 234.07,-98.83 234.07,-101.67 231.23,-104.5 228.4,-104.5"/>
<text text-anchor="middle" x="195.54" y="-93.3" font-family="Helvetica,sans-Serif" font-size="9.00">ControlPanel.js</text>
</a>
</g>
</g>
<!-- src/App.js&#45;&gt;src/components/ControlPanel.js -->
<g id="edge2" class="edge">
<title>src/App.js&#45;&gt;src/components/ControlPanel.js</title>
<path fill="none" stroke="#000000" stroke-width="2" stroke-opacity="0.200000" d="M133.56,-75.65C138.54,-77.84 143.94,-80.11 149.02,-82 152.3,-83.22 155.73,-84.42 159.18,-85.57"/>
<polygon fill="#000000" fill-opacity="0.200000" stroke="#000000" stroke-width="2" stroke-opacity="0.200000" points="158.63,-87.6 164.99,-87.46 159.93,-83.61 158.63,-87.6"/>
</g>
<!-- src/components/Ideas.js -->
<g id="node4" class="node">
<title>src/components/Ideas.js</title>
<g id="a_node4"><a xlink:href="src/components/Ideas.js" xlink:title="Ideas.js">
<path fill="#ffffcc" stroke="black" d="M216.87,-75.5C216.87,-75.5 174.2,-75.5 174.2,-75.5 171.37,-75.5 168.54,-72.67 168.54,-69.83 168.54,-69.83 168.54,-64.17 168.54,-64.17 168.54,-61.33 171.37,-58.5 174.2,-58.5 174.2,-58.5 216.87,-58.5 216.87,-58.5 219.7,-58.5 222.54,-61.33 222.54,-64.17 222.54,-64.17 222.54,-69.83 222.54,-69.83 222.54,-72.67 219.7,-75.5 216.87,-75.5"/>
<text text-anchor="middle" x="195.54" y="-64.3" font-family="Helvetica,sans-Serif" font-size="9.00">Ideas.js</text>
</a>
</g>
</g>
<!-- src/App.js&#45;&gt;src/components/Ideas.js -->
<g id="edge3" class="edge">
<title>src/App.js&#45;&gt;src/components/Ideas.js</title>
<path fill="none" stroke="#000000" stroke-width="2" stroke-opacity="0.200000" d="M141.06,-67C147.78,-67 155.11,-67 162.12,-67"/>
<polygon fill="#000000" fill-opacity="0.200000" stroke="#000000" stroke-width="2" stroke-opacity="0.200000" points="162.44,-69.1 168.44,-67 162.44,-64.9 162.44,-69.1"/>
</g>
<!-- src/components/ControlPanel.js&#45;&gt;src/App.css -->
<g id="edge6" class="edge">
<title>src/components/ControlPanel.js&#45;&gt;src/App.css</title>
<path fill="none" stroke="#000000" stroke-width="2" stroke-opacity="0.200000" d="M226.54,-87.43C229.27,-85.9 231.83,-84.11 234.05,-82 244.59,-71.99 234.9,-59.98 247.05,-52 266.67,-39.12 331.2,-45.5 370.87,-50.98"/>
<polygon fill="#000000" fill-opacity="0.200000" stroke="#000000" stroke-width="2" stroke-opacity="0.200000" points="370.78,-53.08 377.01,-51.84 371.36,-48.93 370.78,-53.08"/>
</g>
<!-- src/components/Preview.js -->
<g id="node7" class="node">
<title>src/components/Preview.js</title>
<g id="a_node7"><a xlink:href="src/components/Preview.js" xlink:title="Preview.js">
<path fill="#ffffcc" stroke="black" d="M326.43,-104.5C326.43,-104.5 281.72,-104.5 281.72,-104.5 278.89,-104.5 276.06,-101.67 276.06,-98.83 276.06,-98.83 276.06,-93.17 276.06,-93.17 276.06,-90.33 278.89,-87.5 281.72,-87.5 281.72,-87.5 326.43,-87.5 326.43,-87.5 329.26,-87.5 332.1,-90.33 332.1,-93.17 332.1,-93.17 332.1,-98.83 332.1,-98.83 332.1,-101.67 329.26,-104.5 326.43,-104.5"/>
<text text-anchor="middle" x="304.08" y="-93.3" font-family="Helvetica,sans-Serif" font-size="9.00">Preview.js</text>
</a>
</g>
</g>
<!-- src/components/ControlPanel.js&#45;&gt;src/components/Preview.js -->
<g id="edge7" class="edge">
<title>src/components/ControlPanel.js&#45;&gt;src/components/Preview.js</title>
<path fill="none" stroke="#000000" stroke-width="2" stroke-opacity="0.200000" d="M234.1,-96C245.72,-96 258.45,-96 269.76,-96"/>
<polygon fill="#000000" fill-opacity="0.200000" stroke="#000000" stroke-width="2" stroke-opacity="0.200000" points="269.89,-98.1 275.89,-96 269.89,-93.9 269.89,-98.1"/>
</g>
<!-- src/components/ShortcutButtonsGroup.js -->
<g id="node8" class="node">
<title>src/components/ShortcutButtonsGroup.js</title>
<g id="a_node8"><a xlink:href="src/components/ShortcutButtonsGroup.js" xlink:title="ShortcutButtonsGroup.js">
<path fill="#ffffcc" stroke="black" d="M355.46,-133.5C355.46,-133.5 252.69,-133.5 252.69,-133.5 249.86,-133.5 247.03,-130.67 247.03,-127.83 247.03,-127.83 247.03,-122.17 247.03,-122.17 247.03,-119.33 249.86,-116.5 252.69,-116.5 252.69,-116.5 355.46,-116.5 355.46,-116.5 358.29,-116.5 361.13,-119.33 361.13,-122.17 361.13,-122.17 361.13,-127.83 361.13,-127.83 361.13,-130.67 358.29,-133.5 355.46,-133.5"/>
<text text-anchor="middle" x="304.08" y="-122.3" font-family="Helvetica,sans-Serif" font-size="9.00">ShortcutButtonsGroup.js</text>
</a>
</g>
</g>
<!-- src/components/ControlPanel.js&#45;&gt;src/components/ShortcutButtonsGroup.js -->
<g id="edge8" class="edge">
<title>src/components/ControlPanel.js&#45;&gt;src/components/ShortcutButtonsGroup.js</title>
<path fill="none" stroke="#000000" stroke-width="2" stroke-opacity="0.200000" d="M224.53,-104.55C231.84,-106.72 239.73,-109 247.05,-111 251.92,-112.33 257.03,-113.68 262.12,-114.98"/>
<polygon fill="#000000" fill-opacity="0.200000" stroke="#000000" stroke-width="2" stroke-opacity="0.200000" points="261.72,-117.05 268.05,-116.5 262.75,-112.98 261.72,-117.05"/>
</g>
<!-- src/components/Ideas.js&#45;&gt;src/App.css -->
<g id="edge9" class="edge">
<title>src/components/Ideas.js&#45;&gt;src/App.css</title>
<path fill="none" stroke="#000000" stroke-width="2" stroke-opacity="0.200000" d="M222.75,-60.54C226.69,-59.03 230.59,-57.2 234.05,-55 241.22,-50.45 239.27,-44.39 247.05,-41 296.77,-19.32 316.02,-29.81 369.1,-41 373.26,-41.88 377.53,-43.29 381.57,-44.92"/>
<polygon fill="#000000" fill-opacity="0.200000" stroke="#000000" stroke-width="2" stroke-opacity="0.200000" points="380.97,-46.94 387.31,-47.4 382.64,-43.09 380.97,-46.94"/>
</g>
<!-- src/components/CollapsingButton.js -->
<g id="node6" class="node">
<title>src/components/CollapsingButton.js</title>
<g id="a_node6"><a xlink:href="src/components/CollapsingButton.js" xlink:title="CollapsingButton.js">
<path fill="#ffffcc" stroke="black" d="M344.96,-75.5C344.96,-75.5 263.2,-75.5 263.2,-75.5 260.37,-75.5 257.53,-72.67 257.53,-69.83 257.53,-69.83 257.53,-64.17 257.53,-64.17 257.53,-61.33 260.37,-58.5 263.2,-58.5 263.2,-58.5 344.96,-58.5 344.96,-58.5 347.79,-58.5 350.62,-61.33 350.62,-64.17 350.62,-64.17 350.62,-69.83 350.62,-69.83 350.62,-72.67 347.79,-75.5 344.96,-75.5"/>
<text text-anchor="middle" x="304.08" y="-64.3" font-family="Helvetica,sans-Serif" font-size="9.00">CollapsingButton.js</text>
</a>
</g>
</g>
<!-- src/components/Ideas.js&#45;&gt;src/components/CollapsingButton.js -->
<g id="edge10" class="edge">
<title>src/components/Ideas.js&#45;&gt;src/components/CollapsingButton.js</title>
<path fill="none" stroke="#000000" stroke-width="2" stroke-opacity="0.200000" d="M222.6,-67C231.27,-67 241.26,-67 251.18,-67"/>
<polygon fill="#000000" fill-opacity="0.200000" stroke="#000000" stroke-width="2" stroke-opacity="0.200000" points="251.34,-69.1 257.34,-67 251.34,-64.9 251.34,-69.1"/>
</g>
<!-- src/App.test.js -->
<g id="node5" class="node">
<title>src/App.test.js</title>
<g id="a_node5"><a xlink:href="src/App.test.js" xlink:title="App.test.js">
<path fill="#ffffcc" stroke="black" d="M68.36,-75.5C68.36,-75.5 21.66,-75.5 21.66,-75.5 18.82,-75.5 15.99,-72.67 15.99,-69.83 15.99,-69.83 15.99,-64.17 15.99,-64.17 15.99,-61.33 18.82,-58.5 21.66,-58.5 21.66,-58.5 68.36,-58.5 68.36,-58.5 71.2,-58.5 74.03,-61.33 74.03,-64.17 74.03,-64.17 74.03,-69.83 74.03,-69.83 74.03,-72.67 71.2,-75.5 68.36,-75.5"/>
<text text-anchor="middle" x="45.01" y="-64.3" font-family="Helvetica,sans-Serif" font-size="9.00">App.test.js</text>
</a>
</g>
</g>
<!-- src/App.test.js&#45;&gt;src/App.js -->
<g id="edge4" class="edge">
<title>src/App.test.js&#45;&gt;src/App.js</title>
<path fill="none" stroke="#000000" stroke-width="2" stroke-opacity="0.200000" d="M74.04,-67C76.12,-67 78.23,-67 80.33,-67"/>
<polygon fill="#000000" fill-opacity="0.200000" stroke="#000000" stroke-width="2" stroke-opacity="0.200000" points="80.6,-69.1 86.6,-67 80.6,-64.9 80.6,-69.1"/>
</g>
<!-- src/components/CollapsingButton.js&#45;&gt;src/App.css -->
<g id="edge5" class="edge">
<title>src/components/CollapsingButton.js&#45;&gt;src/App.css</title>
<path fill="none" stroke="#000000" stroke-width="2" stroke-opacity="0.200000" d="M350.65,-61.89C357.4,-61.13 364.23,-60.36 370.64,-59.64"/>
<polygon fill="#000000" fill-opacity="0.200000" stroke="#000000" stroke-width="2" stroke-opacity="0.200000" points="371.16,-61.7 376.89,-58.94 370.69,-57.52 371.16,-61.7"/>
</g>
<!-- src/components/Preview.js&#45;&gt;src/App.css -->
<g id="edge11" class="edge">
<title>src/components/Preview.js&#45;&gt;src/App.css</title>
<path fill="none" stroke="#000000" stroke-width="2" stroke-opacity="0.200000" d="M332.4,-92.73C344.09,-90.65 357.64,-87.31 369.1,-82 376.37,-78.63 383.55,-73.49 389.42,-68.66"/>
<polygon fill="#000000" fill-opacity="0.200000" stroke="#000000" stroke-width="2" stroke-opacity="0.200000" points="390.82,-70.23 394.02,-64.73 388.1,-67.03 390.82,-70.23"/>
</g>
<!-- src/components/ShortcutButtonsGroup.js&#45;&gt;src/App.css -->
<g id="edge12" class="edge">
<title>src/components/ShortcutButtonsGroup.js&#45;&gt;src/App.css</title>
<path fill="none" stroke="#000000" stroke-width="2" stroke-opacity="0.200000" d="M359.53,-116.43C362.9,-114.9 366.13,-113.1 369.1,-111 383.27,-100.96 392.73,-82.98 398,-70.31"/>
<polygon fill="#000000" fill-opacity="0.200000" stroke="#000000" stroke-width="2" stroke-opacity="0.200000" points="400.01,-70.93 400.25,-64.58 396.1,-69.39 400.01,-70.93"/>
</g>
<!-- src/index.css -->
<g id="node9" class="node">
<title>src/index.css</title>
<g id="a_node9"><a xlink:href="src/index.css" xlink:title="index.css">
<path fill="#ffffcc" stroke="black" d="M135.35,-104.5C135.35,-104.5 92.69,-104.5 92.69,-104.5 89.85,-104.5 87.02,-101.67 87.02,-98.83 87.02,-98.83 87.02,-93.17 87.02,-93.17 87.02,-90.33 89.85,-87.5 92.69,-87.5 92.69,-87.5 135.35,-87.5 135.35,-87.5 138.19,-87.5 141.02,-90.33 141.02,-93.17 141.02,-93.17 141.02,-98.83 141.02,-98.83 141.02,-101.67 138.19,-104.5 135.35,-104.5"/>
<text text-anchor="middle" x="114.02" y="-93.3" font-family="Helvetica,sans-Serif" font-size="9.00">index.css</text>
</a>
</g>
</g>
<!-- src/index.js -->
<g id="node10" class="node">
<title>src/index.js</title>
<g id="a_node10"><a xlink:href="src/index.js" xlink:title="index.js">
<path fill="#ffffcc" stroke="black" d="M66.34,-104.5C66.34,-104.5 23.68,-104.5 23.68,-104.5 20.84,-104.5 18.01,-101.67 18.01,-98.83 18.01,-98.83 18.01,-93.17 18.01,-93.17 18.01,-90.33 20.84,-87.5 23.68,-87.5 23.68,-87.5 66.34,-87.5 66.34,-87.5 69.18,-87.5 72.01,-90.33 72.01,-93.17 72.01,-93.17 72.01,-98.83 72.01,-98.83 72.01,-101.67 69.18,-104.5 66.34,-104.5"/>
<text text-anchor="middle" x="45.01" y="-93.3" font-family="Helvetica,sans-Serif" font-size="9.00">index.js</text>
</a>
</g>
</g>
<!-- src/index.js&#45;&gt;src/App.js -->
<g id="edge13" class="edge">
<title>src/index.js&#45;&gt;src/App.js</title>
<path fill="none" stroke="#000000" stroke-width="2" stroke-opacity="0.200000" d="M65.75,-87.46C72.51,-84.53 80.17,-81.22 87.33,-78.12"/>
<polygon fill="#000000" fill-opacity="0.200000" stroke="#000000" stroke-width="2" stroke-opacity="0.200000" points="88.51,-79.89 93.19,-75.58 86.85,-76.04 88.51,-79.89"/>
</g>
<!-- src/index.js&#45;&gt;src/index.css -->
<g id="edge14" class="edge">
<title>src/index.js&#45;&gt;src/index.css</title>
<path fill="none" stroke="#000000" stroke-width="2" stroke-opacity="0.200000" d="M72.11,-96C74.84,-96 77.64,-96 80.43,-96"/>
<polygon fill="#000000" fill-opacity="0.200000" stroke="#000000" stroke-width="2" stroke-opacity="0.200000" points="80.88,-98.1 86.88,-96 80.88,-93.9 80.88,-98.1"/>
</g>
</g>
</svg>
