<?xml version="1.0" encoding="UTF-8" standalone="no"?>
<!DOCTYPE svg PUBLIC "-//W3C//DTD SVG 1.1//EN"
 "http://www.w3.org/Graphics/SVG/1.1/DTD/svg11.dtd">
<!-- Generated by graphviz version 2.43.0 (0)
 -->
<!-- Title: dependency&#45;cruiser output Pages: 1 -->
<svg width="289pt" height="396pt"
 viewBox="0.00 0.00 289.11 396.00" xmlns="http://www.w3.org/2000/svg" xmlns:xlink="http://www.w3.org/1999/xlink">
<g id="graph0" class="graph" transform="scale(1 1) rotate(0) translate(4 392)">
<title>dependency&#45;cruiser output</title>
<polygon fill="white" stroke="transparent" points="-4,4 -4,-392 285.11,-392 285.11,4 -4,4"/>
<g id="clust1" class="cluster">
<title>cluster_@sapper</title>
<path fill="#ffffff" stroke="black" stroke-width="2" d="M163.08,-8C163.08,-8 229.59,-8 229.59,-8 235.59,-8 241.59,-14 241.59,-20 241.59,-20 241.59,-105 241.59,-105 241.59,-111 235.59,-117 229.59,-117 229.59,-117 163.08,-117 163.08,-117 157.08,-117 151.08,-111 151.08,-105 151.08,-105 151.08,-20 151.08,-20 151.08,-14 157.08,-8 163.08,-8"/>
<text text-anchor="middle" x="196.33" y="-105.8" font-family="Helvetica,sans-Serif" font-weight="bold" font-size="9.00">@sapper</text>
</g>
<g id="clust2" class="cluster">
<title>cluster_src</title>
<path fill="#ffffff" stroke="black" stroke-width="2" d="M20,-125C20,-125 261.11,-125 261.11,-125 267.11,-125 273.11,-131 273.11,-137 273.11,-137 273.11,-368 273.11,-368 273.11,-374 267.11,-380 261.11,-380 261.11,-380 20,-380 20,-380 14,-380 8,-374 8,-368 8,-368 8,-137 8,-137 8,-131 14,-125 20,-125"/>
<text text-anchor="middle" x="140.55" y="-368.8" font-family="Helvetica,sans-Serif" font-weight="bold" font-size="9.00">src</text>
</g>
<g id="clust3" class="cluster">
<title>cluster_src/helpers</title>
<path fill="#ffffff" stroke="black" stroke-width="2" d="M28,-217C28,-217 253.11,-217 253.11,-217 259.11,-217 265.11,-223 265.11,-229 265.11,-229 265.11,-343 265.11,-343 265.11,-349 259.11,-355 253.11,-355 253.11,-355 28,-355 28,-355 22,-355 16,-349 16,-343 16,-343 16,-229 16,-229 16,-223 22,-217 28,-217"/>
<text text-anchor="middle" x="140.55" y="-343.8" font-family="Helvetica,sans-Serif" font-weight="bold" font-size="9.00">helpers</text>
</g>
<!-- @sapper/app -->
<g id="node1" class="node">
<title>@sapper/app</title>
<path fill="#ffffcc" stroke="red" d="M217.67,-91.5C217.67,-91.5 175,-91.5 175,-91.5 172.17,-91.5 169.33,-88.67 169.33,-85.83 169.33,-85.83 169.33,-80.17 169.33,-80.17 169.33,-77.33 172.17,-74.5 175,-74.5 175,-74.5 217.67,-74.5 217.67,-74.5 220.5,-74.5 223.33,-77.33 223.33,-80.17 223.33,-80.17 223.33,-85.83 223.33,-85.83 223.33,-88.67 220.5,-91.5 217.67,-91.5"/>
<text text-anchor="middle" x="196.33" y="-80.3" font-family="Helvetica,sans-Serif" font-size="9.00" fill="red">app</text>
</g>
<!-- @sapper/server -->
<g id="node2" class="node">
<title>@sapper/server</title>
<path fill="#ffffcc" stroke="red" d="M217.67,-62.5C217.67,-62.5 175,-62.5 175,-62.5 172.17,-62.5 169.33,-59.67 169.33,-56.83 169.33,-56.83 169.33,-51.17 169.33,-51.17 169.33,-48.33 172.17,-45.5 175,-45.5 175,-45.5 217.67,-45.5 217.67,-45.5 220.5,-45.5 223.33,-48.33 223.33,-51.17 223.33,-51.17 223.33,-56.83 223.33,-56.83 223.33,-59.67 220.5,-62.5 217.67,-62.5"/>
<text text-anchor="middle" x="196.33" y="-51.3" font-family="Helvetica,sans-Serif" font-size="9.00" fill="red">server</text>
</g>
<!-- @sapper/service&#45;worker -->
<g id="node3" class="node">
<title>@sapper/service&#45;worker</title>
<path fill="#ffffcc" stroke="red" d="M227.68,-33.5C227.68,-33.5 164.99,-33.5 164.99,-33.5 162.15,-33.5 159.32,-30.67 159.32,-27.83 159.32,-27.83 159.32,-22.17 159.32,-22.17 159.32,-19.33 162.15,-16.5 164.99,-16.5 164.99,-16.5 227.68,-16.5 227.68,-16.5 230.51,-16.5 233.34,-19.33 233.34,-22.17 233.34,-22.17 233.34,-27.83 233.34,-27.83 233.34,-30.67 230.51,-33.5 227.68,-33.5"/>
<text text-anchor="middle" x="196.33" y="-22.3" font-family="Helvetica,sans-Serif" font-size="9.00" fill="red">service&#45;worker</text>
</g>
<!-- src/client.js -->
<g id="node4" class="node">
<title>src/client.js</title>
<g id="a_node4"><a xlink:href="src/client.js" xlink:title="client.js">
<path fill="#ffffcc" stroke="black" d="M94.61,-208.5C94.61,-208.5 51.94,-208.5 51.94,-208.5 49.11,-208.5 46.28,-205.67 46.28,-202.83 46.28,-202.83 46.28,-197.17 46.28,-197.17 46.28,-194.33 49.11,-191.5 51.94,-191.5 51.94,-191.5 94.61,-191.5 94.61,-191.5 97.44,-191.5 100.28,-194.33 100.28,-197.17 100.28,-197.17 100.28,-202.83 100.28,-202.83 100.28,-205.67 97.44,-208.5 94.61,-208.5"/>
<text text-anchor="middle" x="73.28" y="-197.3" font-family="Helvetica,sans-Serif" font-size="9.00">client.js</text>
</a>
</g>
</g>
<!-- src/client.js&#45;&gt;@sapper/app -->
<g id="edge1" class="edge">
<title>src/client.js&#45;&gt;@sapper/app</title>
<path fill="none" stroke="#000000" stroke-width="2" stroke-opacity="0.200000" d="M100.28,-195.86C107.94,-193.78 116.02,-190.66 122.56,-186 155.32,-162.66 178.54,-119.77 189.04,-97.41"/>
<polygon fill="#000000" fill-opacity="0.200000" stroke="#000000" stroke-width="2" stroke-opacity="0.200000" points="191.07,-98.01 191.66,-91.68 187.25,-96.27 191.07,-98.01"/>
</g>
<!-- src/helpers/expandTextarea.js -->
<g id="node5" class="node">
<title>src/helpers/expandTextarea.js</title>
<g id="a_node5"><a xlink:href="src/helpers/expandTextarea.js" xlink:title="expandTextarea.js">
<path fill="#ccffcc" stroke="black" d="M112.16,-329.5C112.16,-329.5 34.4,-329.5 34.4,-329.5 31.57,-329.5 28.73,-326.67 28.73,-323.83 28.73,-323.83 28.73,-318.17 28.73,-318.17 28.73,-315.33 31.57,-312.5 34.4,-312.5 34.4,-312.5 112.16,-312.5 112.16,-312.5 114.99,-312.5 117.82,-315.33 117.82,-318.17 117.82,-318.17 117.82,-323.83 117.82,-323.83 117.82,-326.67 114.99,-329.5 112.16,-329.5"/>
<text text-anchor="middle" x="73.28" y="-318.3" font-family="Helvetica,sans-Serif" font-size="9.00">expandTextarea.js</text>
</a>
</g>
</g>
<!-- src/helpers/makeElementDraggable.js -->
<g id="node6" class="node">
<title>src/helpers/makeElementDraggable.js</title>
<g id="a_node6"><a xlink:href="src/helpers/makeElementDraggable.js" xlink:title="makeElementDraggable.js">
<path fill="#ffffcc" stroke="black" d="M251.22,-271.5C251.22,-271.5 141.45,-271.5 141.45,-271.5 138.61,-271.5 135.78,-268.67 135.78,-265.83 135.78,-265.83 135.78,-260.17 135.78,-260.17 135.78,-257.33 138.61,-254.5 141.45,-254.5 141.45,-254.5 251.22,-254.5 251.22,-254.5 254.05,-254.5 256.88,-257.33 256.88,-260.17 256.88,-260.17 256.88,-265.83 256.88,-265.83 256.88,-268.67 254.05,-271.5 251.22,-271.5"/>
<text text-anchor="middle" x="196.33" y="-260.3" font-family="Helvetica,sans-Serif" font-size="9.00">makeElementDraggable.js</text>
</a>
</g>
</g>
<!-- src/helpers/tour.js -->
<g id="node7" class="node">
<title>src/helpers/tour.js</title>
<g id="a_node7"><a xlink:href="src/helpers/tour.js" xlink:title="tour.js">
<path fill="#ccffcc" stroke="black" d="M94.61,-300.5C94.61,-300.5 51.94,-300.5 51.94,-300.5 49.11,-300.5 46.28,-297.67 46.28,-294.83 46.28,-294.83 46.28,-289.17 46.28,-289.17 46.28,-286.33 49.11,-283.5 51.94,-283.5 51.94,-283.5 94.61,-283.5 94.61,-283.5 97.44,-283.5 100.28,-286.33 100.28,-289.17 100.28,-289.17 100.28,-294.83 100.28,-294.83 100.28,-297.67 97.44,-300.5 94.61,-300.5"/>
<text text-anchor="middle" x="73.28" y="-289.3" font-family="Helvetica,sans-Serif" font-size="9.00">tour.js</text>
</a>
</g>
</g>
<!-- src/helpers/updateDraggables.js -->
<g id="node8" class="node">
<title>src/helpers/updateDraggables.js</title>
<g id="a_node8"><a xlink:href="src/helpers/updateDraggables.js" xlink:title="updateDraggables.js">
<path fill="#ffffcc" stroke="black" d="M116.67,-271.5C116.67,-271.5 29.89,-271.5 29.89,-271.5 27.05,-271.5 24.22,-268.67 24.22,-265.83 24.22,-265.83 24.22,-260.17 24.22,-260.17 24.22,-257.33 27.05,-254.5 29.89,-254.5 29.89,-254.5 116.67,-254.5 116.67,-254.5 119.5,-254.5 122.33,-257.33 122.33,-260.17 122.33,-260.17 122.33,-265.83 122.33,-265.83 122.33,-268.67 119.5,-271.5 116.67,-271.5"/>
<text text-anchor="middle" x="73.28" y="-260.3" font-family="Helvetica,sans-Serif" font-size="9.00">updateDraggables.js</text>
</a>
</g>
</g>
<!-- src/helpers/updateDraggables.js&#45;&gt;src/helpers/makeElementDraggable.js -->
<g id="edge2" class="edge">
<title>src/helpers/updateDraggables.js&#45;&gt;src/helpers/makeElementDraggable.js</title>
<path fill="none" stroke="#000000" stroke-width="2" stroke-opacity="0.200000" d="M122.47,-263C124.78,-263 127.12,-263 129.47,-263"/>
<polygon fill="#000000" fill-opacity="0.200000" stroke="#000000" stroke-width="2" stroke-opacity="0.200000" points="129.7,-265.1 135.7,-263 129.7,-260.9 129.7,-265.1"/>
</g>
<!-- src/helpers/useRedux.js -->
<g id="node9" class="node">
<title>src/helpers/useRedux.js</title>
<g id="a_node9"><a xlink:href="src/helpers/useRedux.js" xlink:title="useRedux.js">
<path fill="#ccffcc" stroke="black" d="M100.14,-242.5C100.14,-242.5 46.42,-242.5 46.42,-242.5 43.58,-242.5 40.75,-239.67 40.75,-236.83 40.75,-236.83 40.75,-231.17 40.75,-231.17 40.75,-228.33 43.58,-225.5 46.42,-225.5 46.42,-225.5 100.14,-225.5 100.14,-225.5 102.97,-225.5 105.81,-228.33 105.81,-231.17 105.81,-231.17 105.81,-236.83 105.81,-236.83 105.81,-239.67 102.97,-242.5 100.14,-242.5"/>
<text text-anchor="middle" x="73.28" y="-231.3" font-family="Helvetica,sans-Serif" font-size="9.00">useRedux.js</text>
</a>
</g>
</g>
<!-- src/server.js -->
<g id="node10" class="node">
<title>src/server.js</title>
<g id="a_node10"><a xlink:href="src/server.js" xlink:title="server.js">
<path fill="#ffffcc" stroke="black" d="M94.61,-179.5C94.61,-179.5 51.94,-179.5 51.94,-179.5 49.11,-179.5 46.28,-176.67 46.28,-173.83 46.28,-173.83 46.28,-168.17 46.28,-168.17 46.28,-165.33 49.11,-162.5 51.94,-162.5 51.94,-162.5 94.61,-162.5 94.61,-162.5 97.44,-162.5 100.28,-165.33 100.28,-168.17 100.28,-168.17 100.28,-173.83 100.28,-173.83 100.28,-176.67 97.44,-179.5 94.61,-179.5"/>
<text text-anchor="middle" x="73.28" y="-168.3" font-family="Helvetica,sans-Serif" font-size="9.00">server.js</text>
</a>
</g>
</g>
<!-- src/server.js&#45;&gt;@sapper/server -->
<g id="edge3" class="edge">
<title>src/server.js&#45;&gt;@sapper/server</title>
<path fill="none" stroke="#000000" stroke-width="2" stroke-opacity="0.200000" d="M100.32,-168.95C108.54,-167 116.93,-163.44 122.56,-157 148.55,-127.21 109.02,-98.31 135.56,-69 142.51,-61.32 152.77,-57.3 162.83,-55.27"/>
<polygon fill="#000000" fill-opacity="0.200000" stroke="#000000" stroke-width="2" stroke-opacity="0.200000" points="163.45,-57.3 169.03,-54.26 162.77,-53.16 163.45,-57.3"/>
</g>
<!-- src/service&#45;worker.js -->
<g id="node11" class="node">
<title>src/service&#45;worker.js</title>
<g id="a_node11"><a xlink:href="src/service-worker.js" xlink:title="service&#45;worker.js">
<path fill="#ffffcc" stroke="black" d="M109.13,-150.5C109.13,-150.5 37.43,-150.5 37.43,-150.5 34.59,-150.5 31.76,-147.67 31.76,-144.83 31.76,-144.83 31.76,-139.17 31.76,-139.17 31.76,-136.33 34.59,-133.5 37.43,-133.5 37.43,-133.5 109.13,-133.5 109.13,-133.5 111.96,-133.5 114.79,-136.33 114.79,-139.17 114.79,-139.17 114.79,-144.83 114.79,-144.83 114.79,-147.67 111.96,-150.5 109.13,-150.5"/>
<text text-anchor="middle" x="73.28" y="-139.3" font-family="Helvetica,sans-Serif" font-size="9.00">service&#45;worker.js</text>
</a>
</g>
</g>
<!-- src/service&#45;worker.js&#45;&gt;@sapper/service&#45;worker -->
<g id="edge4" class="edge">
<title>src/service&#45;worker.js&#45;&gt;@sapper/service&#45;worker</title>
<path fill="none" stroke="#000000" stroke-width="2" stroke-opacity="0.200000" d="M76.93,-133.32C83.45,-113.5 102.2,-64.73 135.56,-40 140.82,-36.1 146.99,-33.2 153.32,-31.06"/>
<polygon fill="#000000" fill-opacity="0.200000" stroke="#000000" stroke-width="2" stroke-opacity="0.200000" points="154.03,-33.04 159.17,-29.29 152.82,-29.02 154.03,-33.04"/>
</g>
</g>
</svg>
